<?xml version="1.0" encoding="UTF-8"?>
<!DOCTYPE svg PUBLIC "-//W3C//DTD SVG 1.1//EN" "http://www.w3.org/Graphics/SVG/1.1/DTD/svg11.dtd">
<svg xmlns="http://www.w3.org/2000/svg" version="1.1" width="360px" height="360px" style="shape-rendering:geometricPrecision; text-rendering:geometricPrecision; image-rendering:optimizeQuality; fill-rule:evenodd; clip-rule:evenodd" xmlns:xlink="http://www.w3.org/1999/xlink">
<g><path style="opacity:0.03" fill="#f5f3ee" d="M 116.5,151.5 C 117.568,150.566 118.901,150.232 120.5,150.5C 120.963,153.482 121.296,156.482 121.5,159.5C 120.069,158.22 119.402,156.553 119.5,154.5C 119.5,152.5 118.5,151.5 116.5,151.5 Z"/></g>
<g><path style="opacity:0.035" fill="#eceae8" d="M 135.5,151.5 C 136.568,150.566 137.901,150.232 139.5,150.5C 139.833,163.833 140.167,177.167 140.5,190.5C 139.833,190.5 139.167,190.5 138.5,190.5C 138.5,187.833 138.5,185.167 138.5,182.5C 138.5,178.167 138.5,173.833 138.5,169.5C 138.5,166.167 138.5,162.833 138.5,159.5C 138.5,156.833 138.5,154.167 138.5,151.5C 137.5,151.5 136.5,151.5 135.5,151.5 Z"/></g>
<g><path style="opacity:0.02" fill="#ded2c1" d="M 229.5,161.5 C 228.833,161.167 228.167,160.833 227.5,160.5C 227.852,157.927 227.352,155.594 226,153.5C 225.186,158.02 225.353,162.354 226.5,166.5C 226.5,172.833 226.5,179.167 226.5,185.5C 226.5,187.167 226.5,188.833 226.5,190.5C 226.167,190.5 225.833,190.5 225.5,190.5C 224.646,177.52 224.313,164.52 224.5,151.5C 225.833,151.5 227.167,151.5 228.5,151.5C 229.051,154.807 229.384,158.14 229.5,161.5 Z"/></g>
<g><path style="opacity:0.039" fill="#ece1d3" d="M 284.5,161.5 C 283.833,161.5 283.167,161.5 282.5,161.5C 282.5,160.833 282.5,160.167 282.5,159.5C 282.634,157.708 282.301,156.042 281.5,154.5C 281.5,153.5 281.5,152.5 281.5,151.5C 280.041,151.433 278.708,151.766 277.5,152.5C 278.552,150.744 280.219,150.077 282.5,150.5C 282.984,154.232 283.651,157.899 284.5,161.5 Z"/></g>
<g><path style="opacity:0.988" fill="#c8b398" d="M 329.5,153.5 C 328.075,151.969 327.409,152.302 327.5,154.5C 326.167,153.833 324.833,153.167 323.5,152.5C 323.791,151.351 324.624,150.684 326,150.5C 328.275,150.278 329.441,151.278 329.5,153.5 Z"/></g>
<g><path style="opacity:0.153" fill="#e5d9ca" d="M 148.5,159.5 C 147.833,158.833 147.167,158.167 146.5,157.5C 146.657,156.127 146.49,154.793 146,153.5C 145.23,152.402 144.397,152.402 143.5,153.5C 143.694,151.088 145.027,150.088 147.5,150.5C 148.159,153.455 148.492,156.455 148.5,159.5 Z"/></g>
<g><path style="opacity:0.58" fill="#d6bfa9" d="M 248.5,161.5 C 247.833,161.5 247.5,161.167 247.5,160.5C 247.682,158.409 247.348,156.409 246.5,154.5C 245.675,153.614 244.675,153.281 243.5,153.5C 244.183,151.824 245.517,151.157 247.5,151.5C 248.207,154.786 248.54,158.119 248.5,161.5 Z"/></g>
<g><path style="opacity:0.878" fill="#c1a98a" d="M 302.5,157.5 C 301.678,155.611 300.845,153.611 300,151.5C 299.51,152.793 299.343,154.127 299.5,155.5C 298.833,155.5 298.167,155.5 297.5,155.5C 297.631,154.761 297.464,154.094 297,153.5C 296.768,154.737 296.268,155.737 295.5,156.5C 294.91,151.49 296.91,149.824 301.5,151.5C 302.348,153.409 302.682,155.409 302.5,157.5 Z"/></g>
<g><path style="opacity:0.969" fill="#cbbdab" d="M 31.5,157.5 C 31.5,158.833 31.5,160.167 31.5,161.5C 31.573,163.027 30.9063,164.027 29.5,164.5C 29.1667,164.5 28.8333,164.5 28.5,164.5C 30.6318,161.432 30.9652,158.099 29.5,154.5C 28.4593,156.991 27.6259,156.991 27,154.5C 26.6174,155.056 26.1174,155.389 25.5,155.5C 26.4007,151.478 28.234,150.811 31,153.5C 31.49,154.793 31.6567,156.127 31.5,157.5 Z"/></g>
<g><path style="opacity:0.984" fill="#ccb79a" d="M 52.5,161.5 C 45.8469,163.893 41.0136,161.893 38,155.5C 37.6012,155.728 37.4346,156.062 37.5,156.5C 36.8333,156.167 36.1667,155.833 35.5,155.5C 35.0623,154.494 34.3957,154.494 33.5,155.5C 33.7944,152.354 35.461,151.187 38.5,152C 39.8333,154.667 41.1667,157.333 42.5,160C 45.7256,161.199 49.059,161.699 52.5,161.5 Z"/></g>
<g><path style="opacity:0.282" fill="#eaded4" d="M 70.5,161.5 C 70.1667,161.5 69.8333,161.5 69.5,161.5C 69.1667,161.5 68.8333,161.5 68.5,161.5C 66.9867,159.484 66.1534,157.151 66,154.5C 64.5319,152.964 63.0319,152.63 61.5,153.5C 62.2039,151.656 63.5372,151.156 65.5,152C 66.7437,155.405 68.4103,158.572 70.5,161.5 Z"/></g>
<g><path style="opacity:0.992" fill="#c3aa85" d="M 275.5,159.5 C 275.167,159.5 274.833,159.5 274.5,159.5C 274.819,157.25 274.319,155.25 273,153.5C 272.517,154.448 272.351,155.448 272.5,156.5C 271.778,155.449 270.778,154.782 269.5,154.5C 269.787,151.516 271.454,150.183 274.5,150.5C 275.159,153.455 275.492,156.455 275.5,159.5 Z"/></g>
<g><path style="opacity:0.996" fill="#a88452" d="M 281.5,154.5 C 280.938,157.051 279.938,158.718 278.5,159.5C 278.167,159.5 277.833,159.5 277.5,159.5C 276.562,157.244 276.562,154.91 277.5,152.5C 278.708,151.766 280.041,151.433 281.5,151.5C 281.5,152.5 281.5,153.5 281.5,154.5 Z"/></g>
<g><path style="opacity:0.027" fill="#f1e8e6" d="M 89.5,152.5 C 90.5417,151.209 91.7083,151.209 93,152.5C 94.1445,155.08 94.9778,157.747 95.5,160.5C 94.0937,160.027 93.427,159.027 93.5,157.5C 93.2687,154.937 91.9354,153.27 89.5,152.5 Z"/></g>
<g><path style="opacity:0.125" fill="#eee3d8" d="M 206.5,161.5 C 205.167,161.5 203.833,161.5 202.5,161.5C 201.082,158.98 200.082,156.313 199.5,153.5C 199.158,152.662 198.492,152.328 197.5,152.5C 198.078,150.557 199.078,150.223 200.5,151.5C 201.259,154.157 201.926,156.823 202.5,159.5C 203.949,160.172 205.282,160.839 206.5,161.5 Z"/></g>
<g><path style="opacity:0.996" fill="#7d561a" d="M 274.5,159.5 C 273.549,160.919 273.216,162.585 273.5,164.5C 272.566,163.432 272.232,162.099 272.5,160.5C 272.5,159.167 272.5,157.833 272.5,156.5C 272.351,155.448 272.517,154.448 273,153.5C 274.319,155.25 274.819,157.25 274.5,159.5 Z"/></g>
<g><path style="opacity:0.639" fill="#b09065" d="M 189.5,152.5 C 190.496,152.414 191.329,152.748 192,153.5C 192.495,155.473 192.662,157.473 192.5,159.5C 191.71,158.391 191.21,157.058 191,155.5C 190.583,156.756 189.75,157.423 188.5,157.5C 188.216,155.585 188.549,153.919 189.5,152.5 Z"/></g>
<g><path style="opacity:0.071" fill="#f2ebe3" d="M 194.5,190.5 C 193.833,183.833 193.167,177.167 192.5,170.5C 192.5,167.5 192.5,164.5 192.5,161.5C 192.5,160.833 192.5,160.167 192.5,159.5C 192.662,157.473 192.495,155.473 192,153.5C 191.329,152.748 190.496,152.414 189.5,152.5C 190.694,149.982 191.86,149.982 193,152.5C 194.227,165.137 194.727,177.803 194.5,190.5 Z"/></g>
<g><path style="opacity:0.996" fill="#ab844a" d="M 89.5,152.5 C 91.9354,153.27 93.2687,154.937 93.5,157.5C 92.5,157.5 91.5,157.5 90.5,157.5C 90.6332,154.075 89.9665,153.742 88.5,156.5C 88.2322,154.901 88.5655,153.568 89.5,152.5 Z"/></g>
<g><path style="opacity:0.161" fill="#e1d9cb" d="M 112.5,159.5 C 112.167,159.5 111.833,159.5 111.5,159.5C 111.5,157.5 111.5,155.5 111.5,153.5C 109.821,153.285 108.821,153.952 108.5,155.5C 108.167,155.5 107.833,155.5 107.5,155.5C 106.746,151.581 108.08,150.247 111.5,151.5C 112.393,154.084 112.726,156.751 112.5,159.5 Z"/></g>
<g><path style="opacity:0.353" fill="#9c7d49" d="M 135.5,151.5 C 136.5,151.5 137.5,151.5 138.5,151.5C 138.5,154.167 138.5,156.833 138.5,159.5C 136.824,160.183 136.157,161.517 136.5,163.5C 135.5,163.5 134.5,163.5 133.5,163.5C 133.557,162.391 133.89,161.391 134.5,160.5C 135.299,157.57 135.632,154.57 135.5,151.5 Z"/></g>
<g><path style="opacity:0.029" fill="#f3f0ec" d="M 220.5,156.5 C 221.999,167.298 222.666,178.298 222.5,189.5C 222.5,190.167 222.167,190.5 221.5,190.5C 221.823,183.978 221.49,177.645 220.5,171.5C 220.5,171.167 220.5,170.833 220.5,170.5C 220.5,167.5 220.5,164.5 220.5,161.5C 220.5,159.833 220.5,158.167 220.5,156.5 Z"/></g>
<g><path style="opacity:0.792" fill="#b69464" d="M 254.5,151.5 C 254.5,152.5 254.5,153.5 254.5,154.5C 252.654,156.03 251.654,158.03 251.5,160.5C 250.41,157.319 250.41,153.985 251.5,150.5C 252.791,150.263 253.791,150.596 254.5,151.5 Z"/></g>
<g><path style="opacity:0.882" fill="#a37d46" d="M 309.5,154.5 C 306.482,155.855 305.149,158.188 305.5,161.5C 305.167,161.5 304.833,161.5 304.5,161.5C 304.5,158.5 304.5,155.5 304.5,152.5C 306.117,151.962 307.784,151.629 309.5,151.5C 309.5,152.5 309.5,153.5 309.5,154.5 Z"/></g>
<g><path style="opacity:0.722" fill="#c8bba5" d="M 311.5,160.5 C 311.167,160.5 310.833,160.5 310.5,160.5C 310.5,160.167 310.5,159.833 310.5,159.5C 309.962,157.883 309.629,156.216 309.5,154.5C 309.5,153.5 309.5,152.5 309.5,151.5C 307.784,151.629 306.117,151.962 304.5,152.5C 305.99,150.72 307.99,150.054 310.5,150.5C 311.207,153.786 311.54,157.119 311.5,160.5 Z"/></g>
<g><path style="opacity:0.702" fill="#a68d6b" d="M 337.5,159.5 C 337.167,159.5 336.833,159.5 336.5,159.5C 335.5,159.5 334.5,159.5 333.5,159.5C 333.5,157.167 333.5,154.833 333.5,152.5C 334.542,151.209 335.708,151.209 337,152.5C 337.497,154.81 337.663,157.143 337.5,159.5 Z"/></g>
<g><path style="opacity:0.363" fill="#f5f3ee" d="M 17.5,162.5 C 13.3601,161.956 12.6935,162.956 15.5,165.5C 10.6589,163.467 9.49224,160.134 12,155.5C 13.8419,157.864 15.6753,160.197 17.5,162.5 Z"/></g>
<g><path style="opacity:0.961" fill="#7a5611" d="M 35.5,155.5 C 35.5,157.833 35.5,160.167 35.5,162.5C 34.8333,162.167 34.1667,161.833 33.5,161.5C 33.5,159.5 33.5,157.5 33.5,155.5C 34.3957,154.494 35.0623,154.494 35.5,155.5 Z"/></g>
<g><path style="opacity:0.996" fill="#896225" d="M 83.5,162.5 C 82.8333,162.5 82.5,162.167 82.5,161.5C 82.5,160.167 81.8333,159.5 80.5,159.5C 80.5,157.833 80.5,156.167 80.5,154.5C 80.5,154.167 80.5,153.833 80.5,153.5C 81.787,152.232 82.787,152.565 83.5,154.5C 84.7294,157.199 84.7294,159.865 83.5,162.5 Z"/></g>
<g><path style="opacity:0.325" fill="#d9cfc8" d="M 84.5,163.5 C 84.1667,163.5 83.8333,163.5 83.5,163.5C 83.5,163.167 83.5,162.833 83.5,162.5C 84.7294,159.865 84.7294,157.199 83.5,154.5C 82.787,152.565 81.787,152.232 80.5,153.5C 81.5521,151.744 83.2188,151.077 85.5,151.5C 85.5918,154.359 85.9251,156.859 86.5,159C 85.7334,160.47 85.0668,161.97 84.5,163.5 Z"/></g>
<g><path style="opacity:0.988" fill="#886124" d="M 119.5,154.5 C 119.402,156.553 120.069,158.22 121.5,159.5C 121.328,160.492 121.662,161.158 122.5,161.5C 122.672,162.492 122.338,163.158 121.5,163.5C 121.167,163.5 120.833,163.5 120.5,163.5C 120.5,162.833 120.167,162.5 119.5,162.5C 119.5,161.833 119.167,161.5 118.5,161.5C 117.833,161.5 117.167,161.5 116.5,161.5C 116.187,158.753 116.52,156.086 117.5,153.5C 118.183,153.863 118.85,154.196 119.5,154.5 Z"/></g>
<g><path style="opacity:0.106" fill="#dabfa7" d="M 220.5,156.5 C 219.788,155.261 218.788,154.761 217.5,155C 216.901,156.622 216.234,158.122 215.5,159.5C 215.575,156.794 215.908,154.127 216.5,151.5C 217.833,151.5 219.167,151.5 220.5,151.5C 220.5,153.167 220.5,154.833 220.5,156.5 Z"/></g>
<g><path style="opacity:0.133" fill="#ebe7dc" d="M 254.5,151.5 C 255.92,154.626 256.92,157.959 257.5,161.5C 257.167,161.5 256.833,161.5 256.5,161.5C 255.662,161.158 255.328,160.492 255.5,159.5C 255.634,157.708 255.301,156.042 254.5,154.5C 254.5,153.5 254.5,152.5 254.5,151.5 Z"/></g>
<g><path style="opacity:0.925" fill="#956c34" d="M 297.5,155.5 C 297.5,156.833 297.5,158.167 297.5,159.5C 296.512,160.795 295.512,162.128 294.5,163.5C 294.167,163.5 293.833,163.5 293.5,163.5C 293.167,163.5 292.833,163.5 292.5,163.5C 293.234,162.292 293.567,160.959 293.5,159.5C 294.401,158.71 295.068,157.71 295.5,156.5C 296.268,155.737 296.768,154.737 297,153.5C 297.464,154.094 297.631,154.761 297.5,155.5 Z"/></g>
<g><path style="opacity:0.824" fill="#9d7946" d="M 323.5,152.5 C 324.833,153.167 326.167,153.833 327.5,154.5C 327.5,155.5 327.5,156.5 327.5,157.5C 325.796,155.241 324.796,155.907 324.5,159.5C 323.764,161.229 322.43,162.229 320.5,162.5C 320.672,161.508 320.338,160.842 319.5,160.5C 321.721,158.307 323.054,155.64 323.5,152.5 Z"/></g>
<g><path style="opacity:0.663" fill="#c7b592" d="M 343.5,161.5 C 342.448,163.256 340.781,163.923 338.5,163.5C 338.567,162.041 338.234,160.708 337.5,159.5C 337.663,157.143 337.497,154.81 337,152.5C 335.708,151.209 334.542,151.209 333.5,152.5C 332.833,152.833 332.167,153.167 331.5,153.5C 331.414,152.504 331.748,151.671 332.5,151C 334.167,150.333 335.833,150.333 337.5,151C 338.709,154.037 339.543,157.204 340,160.5C 341.011,161.337 342.178,161.67 343.5,161.5 Z"/></g>
<g><path style="opacity:0.929" fill="#a07d42" d="M 53.5,153.5 C 54.5832,153.539 55.5832,153.873 56.5,154.5C 57.7969,156.973 57.7969,159.307 56.5,161.5C 54.348,152.474 53.348,152.474 53.5,161.5C 53.1667,161.5 52.8333,161.5 52.5,161.5C 52.1936,158.615 52.5269,155.948 53.5,153.5 Z"/></g>
<g><path style="opacity:0.243" fill="#d1c9c5" d="M 57.5,192.5 C 57.1667,192.5 56.8333,192.5 56.5,192.5C 56.1667,189.833 55.8333,187.167 55.5,184.5C 55.5,180.167 55.5,175.833 55.5,171.5C 55.5,168.833 55.5,166.167 55.5,163.5C 55.3284,162.508 55.6618,161.842 56.5,161.5C 57.7969,159.307 57.7969,156.973 56.5,154.5C 55.5832,153.873 54.5832,153.539 53.5,153.5C 54.4551,151.29 55.9551,150.957 58,152.5C 57.7232,165.815 57.5565,179.148 57.5,192.5 Z"/></g>
<g><path style="opacity:0.996" fill="#885e24" d="M 93.5,157.5 C 93.427,159.027 94.0937,160.027 95.5,160.5C 95.5,161.5 95.5,162.5 95.5,163.5C 95.1667,163.5 94.8333,163.5 94.5,163.5C 93.713,161.896 92.3797,161.229 90.5,161.5C 90.5654,161.062 90.3988,160.728 90,160.5C 89.7216,161.416 89.2216,162.082 88.5,162.5C 88.5,160.5 88.5,158.5 88.5,156.5C 89.9665,153.742 90.6332,154.075 90.5,157.5C 91.5,157.5 92.5,157.5 93.5,157.5 Z"/></g>
<g><path style="opacity:0.996" fill="#835b21" d="M 111.5,159.5 C 110.833,159.5 110.5,159.833 110.5,160.5C 109.833,160.167 109.167,159.833 108.5,159.5C 108.5,158.167 108.5,156.833 108.5,155.5C 108.821,153.952 109.821,153.285 111.5,153.5C 111.5,155.5 111.5,157.5 111.5,159.5 Z"/></g>
<g><path style="opacity:0.996" fill="#865a1d" d="M 146.5,157.5 C 147.167,158.167 147.833,158.833 148.5,159.5C 148.557,160.609 148.89,161.609 149.5,162.5C 149.5,163.167 149.167,163.5 148.5,163.5C 147.791,162.596 146.791,162.263 145.5,162.5C 144.737,159.859 144.57,157.192 145,154.5C 145.232,155.737 145.732,156.737 146.5,157.5 Z"/></g>
<g><path style="opacity:0.149" fill="#ede6d8" d="M 176.5,161.5 C 176.167,161.5 175.833,161.5 175.5,161.5C 174.542,161.047 173.708,160.381 173,159.5C 172.808,157.423 172.308,155.423 171.5,153.5C 170.511,157.107 170.177,160.774 170.5,164.5C 170.5,167.167 170.5,169.833 170.5,172.5C 169.509,165.687 169.175,158.687 169.5,151.5C 171.144,151.286 172.644,151.62 174,152.5C 174.057,155.811 174.89,158.811 176.5,161.5 Z"/></g>
<g><path style="opacity:0.929" fill="#8c662a" d="M 192.5,159.5 C 192.5,160.167 192.5,160.833 192.5,161.5C 191.075,159.969 190.409,160.302 190.5,162.5C 189.5,162.5 188.5,162.5 187.5,162.5C 187.5,161.833 187.5,161.167 187.5,160.5C 187.557,159.391 187.89,158.391 188.5,157.5C 189.75,157.423 190.583,156.756 191,155.5C 191.21,157.058 191.71,158.391 192.5,159.5 Z"/></g>
<g><path style="opacity:0.996" fill="#90682c" d="M 243.5,153.5 C 244.675,153.281 245.675,153.614 246.5,154.5C 247.348,156.409 247.682,158.409 247.5,160.5C 246.532,162.607 246.198,164.941 246.5,167.5C 245.835,165.631 245.169,163.631 244.5,161.5C 243.482,162.193 242.482,162.859 241.5,163.5C 241.833,162.167 242.167,160.833 242.5,159.5C 242.325,157.379 242.659,155.379 243.5,153.5 Z"/></g>
<g><path style="opacity:0.969" fill="#8f692c" d="M 329.5,153.5 C 329.448,155.903 329.781,158.236 330.5,160.5C 329.883,160.389 329.383,160.056 329,159.5C 328.506,161.134 328.34,162.801 328.5,164.5C 327.532,162.393 327.198,160.059 327.5,157.5C 327.5,156.5 327.5,155.5 327.5,154.5C 327.409,152.302 328.075,151.969 329.5,153.5 Z"/></g>
<g><path style="opacity:0.996" fill="#745018" d="M 56.5,161.5 C 55.6618,161.842 55.3284,162.508 55.5,163.5C 55.1667,163.5 54.8333,163.5 54.5,163.5C 54.6716,162.508 54.3382,161.842 53.5,161.5C 53.348,152.474 54.348,152.474 56.5,161.5 Z"/></g>
<g><path style="opacity:0.98" fill="#7e5921" d="M 254.5,154.5 C 255.301,156.042 255.634,157.708 255.5,159.5C 253.952,159.821 253.285,160.821 253.5,162.5C 252.833,161.833 252.167,161.167 251.5,160.5C 251.654,158.03 252.654,156.03 254.5,154.5 Z"/></g>
<g><path style="opacity:0.91" fill="#966f3b" d="M 68.5,161.5 C 69.0998,162.9 70.0998,163.9 71.5,164.5C 69.1417,164.747 67.1417,164.081 65.5,162.5C 64.9941,160.895 64.3274,160.561 63.5,161.5C 61.6921,160.082 61.0254,158.082 61.5,155.5C 61.5,154.833 61.5,154.167 61.5,153.5C 63.0319,152.63 64.5319,152.964 66,154.5C 66.1534,157.151 66.9867,159.484 68.5,161.5 Z"/></g>
<g><path style="opacity:0.076" fill="#e3d3bd" d="M 116.5,151.5 C 118.5,151.5 119.5,152.5 119.5,154.5C 118.85,154.196 118.183,153.863 117.5,153.5C 116.52,156.086 116.187,158.753 116.5,161.5C 116.5,164.167 116.5,166.833 116.5,169.5C 116.5,176.5 116.5,183.5 116.5,190.5C 116.167,190.5 115.833,190.5 115.5,190.5C 115.186,177.421 115.52,164.421 116.5,151.5 Z"/></g>
<g><path style="opacity:0.937" fill="#93712f" d="M 199.5,153.5 C 200.082,156.313 201.082,158.98 202.5,161.5C 203.167,162.167 203.833,162.833 204.5,163.5C 203.833,163.5 203.167,163.5 202.5,163.5C 202.167,163.5 201.833,163.5 201.5,163.5C 201.167,163.5 200.833,163.5 200.5,163.5C 200.5,162.167 199.833,161.5 198.5,161.5C 198.194,158.615 198.527,155.948 199.5,153.5 Z"/></g>
<g><path style="opacity:0.996" fill="#88652d" d="M 220.5,156.5 C 220.5,158.167 220.5,159.833 220.5,161.5C 219.075,159.969 218.409,160.302 218.5,162.5C 217.5,162.5 216.5,162.5 215.5,162.5C 215.5,161.5 215.5,160.5 215.5,159.5C 216.234,158.122 216.901,156.622 217.5,155C 218.788,154.761 219.788,155.261 220.5,156.5 Z"/></g>
<g><path style="opacity:0.729" fill="#8c621d" d="M 227.5,160.5 C 226.539,162.265 226.205,164.265 226.5,166.5C 225.353,162.354 225.186,158.02 226,153.5C 227.352,155.594 227.852,157.927 227.5,160.5 Z"/></g>
<g><path style="opacity:0.961" fill="#896633" d="M 269.5,154.5 C 270.778,154.782 271.778,155.449 272.5,156.5C 272.5,157.833 272.5,159.167 272.5,160.5C 270.938,160.733 269.605,161.4 268.5,162.5C 268.5,161.5 268.5,160.5 268.5,159.5C 269.038,157.883 269.371,156.216 269.5,154.5 Z"/></g>
<g><path style="opacity:0.996" fill="#cfa742" d="M 282.5,159.5 C 282.5,160.167 282.5,160.833 282.5,161.5C 282.5,163.833 282.5,166.167 282.5,168.5C 281.833,168.167 281.167,167.833 280.5,167.5C 280.5,165.833 280.5,164.167 280.5,162.5C 280.285,160.821 280.952,159.821 282.5,159.5 Z"/></g>
<g><path style="opacity:0.776" fill="#896329" d="M 302.5,157.5 C 302.5,158.167 302.5,158.833 302.5,159.5C 302.5,160.167 302.5,160.833 302.5,161.5C 301.033,158.742 300.367,159.075 300.5,162.5C 299.532,160.393 299.198,158.059 299.5,155.5C 299.343,154.127 299.51,152.793 300,151.5C 300.845,153.611 301.678,155.611 302.5,157.5 Z"/></g>
<g><path style="opacity:0.996" fill="#815e2d" d="M 28.5,164.5 C 28.1667,164.5 27.8333,164.5 27.5,164.5C 27.5,164.167 27.5,163.833 27.5,163.5C 26.1346,161.409 25.4679,159.076 25.5,156.5C 25.5,156.167 25.5,155.833 25.5,155.5C 26.1174,155.389 26.6174,155.056 27,154.5C 27.6259,156.991 28.4593,156.991 29.5,154.5C 30.9652,158.099 30.6318,161.432 28.5,164.5 Z"/></g>
<g><path style="opacity:0.028" fill="#e6e4e4" d="M 65.5,162.5 C 65.3336,171.506 65.5002,180.506 66,189.5C 68.6333,192.576 69.1333,195.909 67.5,199.5C 67.5,197.833 67.5,196.167 67.5,194.5C 66.9202,192.251 65.5869,190.585 63.5,189.5C 63.5,187.833 63.5,186.167 63.5,184.5C 63.5,179.833 63.5,175.167 63.5,170.5C 63.5,167.5 63.5,164.5 63.5,161.5C 64.3274,160.561 64.9941,160.895 65.5,162.5 Z"/></g>
<g><path style="opacity:0.827" fill="#d1b680" d="M 80.5,154.5 C 80.5,156.167 80.5,157.833 80.5,159.5C 80.6567,160.873 80.49,162.207 80,163.5C 76.3973,162.865 72.8973,162.198 69.5,161.5C 69.8333,161.5 70.1667,161.5 70.5,161.5C 73.5,161.5 76.5,161.5 79.5,161.5C 79.1984,158.941 79.5318,156.607 80.5,154.5 Z"/></g>
<g><path style="opacity:0.992" fill="#ba9b64" d="M 165.5,162.5 C 164.732,163.263 164.232,164.263 164,165.5C 163.29,164.027 162.124,163.36 160.5,163.5C 157.038,162.518 153.371,162.185 149.5,162.5C 148.89,161.609 148.557,160.609 148.5,159.5C 153.067,162.069 157.567,162.069 162,159.5C 162.495,157.527 162.662,155.527 162.5,153.5C 163.15,153.196 163.817,152.863 164.5,152.5C 165.487,155.768 165.82,159.102 165.5,162.5 Z"/></g>
<g><path style="opacity:0.957" fill="#764e16" d="M 281.5,154.5 C 282.301,156.042 282.634,157.708 282.5,159.5C 280.952,159.821 280.285,160.821 280.5,162.5C 279.094,162.027 278.427,161.027 278.5,159.5C 279.938,158.718 280.938,157.051 281.5,154.5 Z"/></g>
<g><path style="opacity:0.031" fill="#efe9dd" d="M 302.5,159.5 C 303.167,160.167 303.833,160.833 304.5,161.5C 304.5,164.833 304.5,168.167 304.5,171.5C 304.5,172.833 304.5,174.167 304.5,175.5C 304.167,175.5 303.833,175.5 303.5,175.5C 303.5,173.167 303.5,170.833 303.5,168.5C 303.552,166.097 303.219,163.764 302.5,161.5C 302.5,160.833 302.5,160.167 302.5,159.5 Z"/></g>
<g><path style="opacity:0.961" fill="#795323" d="M 309.5,154.5 C 309.629,156.216 309.962,157.883 310.5,159.5C 308.824,160.183 308.157,161.517 308.5,163.5C 308.167,163.5 307.833,163.5 307.5,163.5C 307.158,162.662 306.492,162.328 305.5,162.5C 305.5,162.167 305.5,161.833 305.5,161.5C 305.149,158.188 306.482,155.855 309.5,154.5 Z"/></g>
<g><path style="opacity:0.004" fill="#f0ede7" d="M 324.5,159.5 C 324.833,162.5 323.5,163.833 320.5,163.5C 320.5,163.167 320.5,162.833 320.5,162.5C 322.43,162.229 323.764,161.229 324.5,159.5 Z"/></g>
<g><path style="opacity:0.416" fill="#908073" d="M 327.5,157.5 C 327.198,160.059 327.532,162.393 328.5,164.5C 328.5,165.5 328.5,166.5 328.5,167.5C 329.254,172.463 329.587,177.463 329.5,182.5C 329.5,184.833 329.5,187.167 329.5,189.5C 329.167,189.5 328.833,189.5 328.5,189.5C 328.741,182.27 328.075,175.27 326.5,168.5C 326.58,165.219 325.913,162.219 324.5,159.5C 324.796,155.907 325.796,155.241 327.5,157.5 Z"/></g>
<g><path style="opacity:0.98" fill="#7f5b2a" d="M 333.5,152.5 C 333.5,154.833 333.5,157.167 333.5,159.5C 334.5,159.5 335.5,159.5 336.5,159.5C 336.5,160.5 336.5,161.5 336.5,162.5C 335.167,162.167 333.833,161.833 332.5,161.5C 331.659,159.621 331.325,157.621 331.5,155.5C 331.5,154.833 331.5,154.167 331.5,153.5C 332.167,153.167 332.833,152.833 333.5,152.5 Z"/></g>
<g><path style="opacity:0.565" fill="#ddd2bd" d="M 17.5,162.5 C 19.8333,162.5 22.1667,162.5 24.5,162.5C 22.3021,163.165 19.9688,163.832 17.5,164.5C 19.7427,165.474 22.076,165.808 24.5,165.5C 24.5,165.833 24.5,166.167 24.5,166.5C 21.3915,166.736 18.3915,166.403 15.5,165.5C 12.6935,162.956 13.3601,161.956 17.5,162.5 Z"/></g>
<g><path style="opacity:0.996" fill="#9f721e" d="M 52.5,161.5 C 52.8333,161.5 53.1667,161.5 53.5,161.5C 54.3382,161.842 54.6716,162.508 54.5,163.5C 53.8333,163.833 53.1667,164.167 52.5,164.5C 47.777,163.974 43.1103,162.974 38.5,161.5C 38.1667,160.833 37.8333,160.167 37.5,159.5C 37.5,158.5 37.5,157.5 37.5,156.5C 37.4346,156.062 37.6012,155.728 38,155.5C 41.0136,161.893 45.8469,163.893 52.5,161.5 Z"/></g>
<g><path style="opacity:0.29" fill="#d0ab60" d="M 61.5,155.5 C 61.0254,158.082 61.6921,160.082 63.5,161.5C 63.5,164.5 63.5,167.5 63.5,170.5C 62.8333,170.5 62.1667,170.5 61.5,170.5C 61.1667,170.5 60.8333,170.5 60.5,170.5C 60.1795,165.305 60.5128,160.305 61.5,155.5 Z"/></g>
<g><path style="opacity:0.996" fill="#c59d41" d="M 95.5,160.5 C 98.7861,161.207 102.119,161.54 105.5,161.5C 106.043,161.56 106.376,161.893 106.5,162.5C 102.893,163.489 99.226,163.823 95.5,163.5C 95.5,162.5 95.5,161.5 95.5,160.5 Z"/></g>
<g><path style="opacity:0.996" fill="#d9bd73" d="M 121.5,159.5 C 125.654,161.726 129.987,162.059 134.5,160.5C 133.89,161.391 133.557,162.391 133.5,163.5C 133.167,163.5 132.833,163.5 132.5,163.5C 129.061,163.212 125.728,162.546 122.5,161.5C 121.662,161.158 121.328,160.492 121.5,159.5 Z"/></g>
<g><path style="opacity:0.996" fill="#946c2e" d="M 175.5,161.5 C 175.5,162.167 175.5,162.833 175.5,163.5C 174.5,163.5 173.5,163.5 172.5,163.5C 172.631,162.761 172.464,162.094 172,161.5C 171.768,162.737 171.268,163.737 170.5,164.5C 170.177,160.774 170.511,157.107 171.5,153.5C 172.308,155.423 172.808,157.423 173,159.5C 173.708,160.381 174.542,161.047 175.5,161.5 Z"/></g>
<g><path style="opacity:0.996" fill="#d3b65b" d="M 187.5,160.5 C 187.5,161.167 187.5,161.833 187.5,162.5C 187.5,162.833 187.5,163.167 187.5,163.5C 183.5,163.5 179.5,163.5 175.5,163.5C 175.5,162.833 175.5,162.167 175.5,161.5C 175.833,161.5 176.167,161.5 176.5,161.5C 180.234,161.677 183.901,161.344 187.5,160.5 Z"/></g>
<g><path style="opacity:0.996" fill="#c6a348" d="M 215.5,159.5 C 215.5,160.5 215.5,161.5 215.5,162.5C 211.901,163.344 208.234,163.677 204.5,163.5C 203.833,162.833 203.167,162.167 202.5,161.5C 203.833,161.5 205.167,161.5 206.5,161.5C 209.697,161.595 212.697,160.928 215.5,159.5 Z"/></g>
<g><path style="opacity:1" fill="#b3913e" d="M 268.5,159.5 C 268.5,160.5 268.5,161.5 268.5,162.5C 267.833,162.5 267.5,162.833 267.5,163.5C 263.833,163.5 260.167,163.5 256.5,163.5C 256.5,162.833 256.5,162.167 256.5,161.5C 256.833,161.5 257.167,161.5 257.5,161.5C 261.414,161.889 265.08,161.222 268.5,159.5 Z"/></g>
<g><path style="opacity:0.996" fill="#b48e3d" d="M 293.5,159.5 C 293.567,160.959 293.234,162.292 292.5,163.5C 289.5,163.5 286.5,163.5 283.5,163.5C 283.5,165.5 283.5,167.5 283.5,169.5C 282.833,169.5 282.5,169.167 282.5,168.5C 282.5,166.167 282.5,163.833 282.5,161.5C 283.167,161.5 283.833,161.5 284.5,161.5C 287.838,161.935 290.838,161.268 293.5,159.5 Z"/></g>
<g><path style="opacity:0.012" fill="#eceae1" d="M 297.5,159.5 C 298.338,159.842 298.672,160.508 298.5,161.5C 297.833,161.5 297.5,161.833 297.5,162.5C 296.609,163.11 295.609,163.443 294.5,163.5C 295.512,162.128 296.512,160.795 297.5,159.5 Z"/></g>
<g><path style="opacity:0.988" fill="#dcb651" d="M 310.5,159.5 C 310.5,159.833 310.5,160.167 310.5,160.5C 310.5,161.5 310.5,162.5 310.5,163.5C 310.5,165.167 310.5,166.833 310.5,168.5C 310.062,169.506 309.396,169.506 308.5,168.5C 308.5,166.833 308.5,165.167 308.5,163.5C 308.157,161.517 308.824,160.183 310.5,159.5 Z"/></g>
<g><path style="opacity:0.996" fill="#a78035" d="M 310.5,160.5 C 310.833,160.5 311.167,160.5 311.5,160.5C 314.104,161.53 316.771,161.53 319.5,160.5C 320.338,160.842 320.672,161.508 320.5,162.5C 320.5,162.833 320.5,163.167 320.5,163.5C 317.167,163.5 313.833,163.5 310.5,163.5C 310.5,162.5 310.5,161.5 310.5,160.5 Z"/></g>
<g><path style="opacity:0.988" fill="#b39453" d="M 25.5,156.5 C 25.4679,159.076 26.1346,161.409 27.5,163.5C 26.2223,163.782 25.2223,164.449 24.5,165.5C 22.076,165.808 19.7427,165.474 17.5,164.5C 19.9688,163.832 22.3021,163.165 24.5,162.5C 24.2053,160.265 24.5386,158.265 25.5,156.5 Z"/></g>
<g><path style="opacity:0.996" fill="#ae9863" d="M 38.5,161.5 C 43.1103,162.974 47.777,163.974 52.5,164.5C 50.1667,164.5 47.8333,164.5 45.5,164.5C 42.3695,165.092 40.0361,164.092 38.5,161.5 Z"/></g>
<g><path style="opacity:1" fill="#a57a23" d="M 80.5,159.5 C 81.8333,159.5 82.5,160.167 82.5,161.5C 81.596,162.209 81.2627,163.209 81.5,164.5C 78.1667,164.5 74.8333,164.5 71.5,164.5C 70.0998,163.9 69.0998,162.9 68.5,161.5C 68.8333,161.5 69.1667,161.5 69.5,161.5C 72.8973,162.198 76.3973,162.865 80,163.5C 80.49,162.207 80.6567,160.873 80.5,159.5 Z"/></g>
<g><path style="opacity:0.996" fill="#b49c66" d="M 107.5,155.5 C 107.833,155.5 108.167,155.5 108.5,155.5C 108.5,156.833 108.5,158.167 108.5,159.5C 108.5,161.167 108.5,162.833 108.5,164.5C 108.167,164.5 107.833,164.5 107.5,164.5C 105.08,164.292 102.747,164.626 100.5,165.5C 98.3432,164.95 96.3432,164.283 94.5,163.5C 94.8333,163.5 95.1667,163.5 95.5,163.5C 99.226,163.823 102.893,163.489 106.5,162.5C 106.376,161.893 106.043,161.56 105.5,161.5C 107.075,159.886 107.741,157.886 107.5,155.5 Z"/></g>
<g><path style="opacity:0.996" fill="#be9a4b" d="M 122.5,161.5 C 125.728,162.546 129.061,163.212 132.5,163.5C 132.5,163.833 132.5,164.167 132.5,164.5C 128.629,164.815 124.962,164.482 121.5,163.5C 122.338,163.158 122.672,162.492 122.5,161.5 Z"/></g>
<g><path style="opacity:0.996" fill="#d3b163" d="M 149.5,162.5 C 153.371,162.185 157.038,162.518 160.5,163.5C 159.833,163.5 159.5,163.833 159.5,164.5C 155.601,165.846 151.934,165.512 148.5,163.5C 149.167,163.5 149.5,163.167 149.5,162.5 Z"/></g>
<g><path style="opacity:0.384" fill="#cfc1ac" d="M 215.5,162.5 C 216.5,162.5 217.5,162.5 218.5,162.5C 218.5,165.167 218.5,167.833 218.5,170.5C 218.5,172.167 218.5,173.833 218.5,175.5C 217.532,173.393 217.198,171.059 217.5,168.5C 216.852,166.914 216.352,165.247 216,163.5C 211.599,164.467 207.099,164.8 202.5,164.5C 202.5,164.167 202.5,163.833 202.5,163.5C 203.167,163.5 203.833,163.5 204.5,163.5C 208.234,163.677 211.901,163.344 215.5,162.5 Z"/></g>
<g><path style="opacity:0.984" fill="#bfa15e" d="M 242.5,159.5 C 242.167,160.833 241.833,162.167 241.5,163.5C 240.833,163.5 240.5,163.833 240.5,164.5C 236.833,165.833 233.167,165.833 229.5,164.5C 228.549,165.919 228.216,167.585 228.5,169.5C 227.523,166.713 227.19,163.713 227.5,160.5C 228.167,160.833 228.833,161.167 229.5,161.5C 234.145,162.892 238.479,162.226 242.5,159.5 Z"/></g>
<g><path style="opacity:0.993" fill="#c69e3a" d="M 255.5,159.5 C 255.328,160.492 255.662,161.158 256.5,161.5C 256.5,162.167 256.5,162.833 256.5,163.5C 255.539,165.265 255.205,167.265 255.5,169.5C 254.833,169.5 254.167,169.5 253.5,169.5C 253.5,167.167 253.5,164.833 253.5,162.5C 253.285,160.821 253.952,159.821 255.5,159.5 Z"/></g>
<g><path style="opacity:0.996" fill="#c4b08b" d="M 256.5,163.5 C 260.167,163.5 263.833,163.5 267.5,163.5C 264.375,164.479 261.042,164.813 257.5,164.5C 256.523,167.287 256.19,170.287 256.5,173.5C 255.566,172.432 255.232,171.099 255.5,169.5C 255.205,167.265 255.539,165.265 256.5,163.5 Z"/></g>
<g><path style="opacity:0.145" fill="#c5c0b9" d="M 272.5,160.5 C 272.232,162.099 272.566,163.432 273.5,164.5C 273.5,165.833 273.5,167.167 273.5,168.5C 273.5,170.833 273.5,173.167 273.5,175.5C 273.821,181.026 273.488,186.36 272.5,191.5C 272.377,181.817 271.877,172.15 271,162.5C 269.989,163.337 268.822,163.67 267.5,163.5C 267.5,162.833 267.833,162.5 268.5,162.5C 269.605,161.4 270.938,160.733 272.5,160.5 Z"/></g>
<g><path style="opacity:0.996" fill="#dbb554" d="M 302.5,161.5 C 303.219,163.764 303.552,166.097 303.5,168.5C 302.833,168.5 302.167,168.5 301.5,168.5C 300.659,166.621 300.325,164.621 300.5,162.5C 300.367,159.075 301.033,158.742 302.5,161.5 Z"/></g>
<g><path style="opacity:0.094" fill="#ede4d6" d="M 343.5,161.5 C 344.766,162.09 346.099,162.59 347.5,163C 345.406,164.352 343.073,164.852 340.5,164.5C 340.5,168.167 340.5,171.833 340.5,175.5C 340.167,175.5 339.833,175.5 339.5,175.5C 339.702,173.05 339.369,170.717 338.5,168.5C 338.5,166.833 338.5,165.167 338.5,163.5C 340.781,163.923 342.448,163.256 343.5,161.5 Z"/></g>
<g><path style="opacity:0.282" fill="#f7ecd0" d="M 33.5,155.5 C 33.5,157.5 33.5,159.5 33.5,161.5C 33.5,164.833 33.5,168.167 33.5,171.5C 33.5,175.833 33.5,180.167 33.5,184.5C 33.5,184.833 33.5,185.167 33.5,185.5C 32.6556,177.377 31.9889,169.377 31.5,161.5C 31.5,160.167 31.5,158.833 31.5,157.5C 32.1667,156.833 32.8333,156.167 33.5,155.5 Z"/></g>
<g><path style="opacity:0.741" fill="#cfab43" d="M 108.5,159.5 C 109.167,159.833 109.833,160.167 110.5,160.5C 110.5,163.5 110.5,166.5 110.5,169.5C 109.833,168.5 109.167,167.5 108.5,166.5C 108.5,165.833 108.5,165.167 108.5,164.5C 108.5,162.833 108.5,161.167 108.5,159.5 Z"/></g>
<g><path style="opacity:0.988" fill="#d1b050" d="M 116.5,161.5 C 117.167,161.5 117.833,161.5 118.5,161.5C 118.5,164.167 118.5,166.833 118.5,169.5C 117.833,169.5 117.167,169.5 116.5,169.5C 116.5,166.833 116.5,164.167 116.5,161.5 Z"/></g>
<g><path style="opacity:0.42" fill="#be9a57" d="M 146.5,157.5 C 145.732,156.737 145.232,155.737 145,154.5C 144.57,157.192 144.737,159.859 145.5,162.5C 146.791,162.263 147.791,162.596 148.5,163.5C 148.167,163.5 147.833,163.5 147.5,163.5C 146.512,168.64 146.179,173.974 146.5,179.5C 145.523,176.713 145.19,173.713 145.5,170.5C 145.663,168.143 145.497,165.81 145,163.5C 144.768,164.737 144.268,165.737 143.5,166.5C 143.5,162.167 143.5,157.833 143.5,153.5C 144.397,152.402 145.23,152.402 146,153.5C 146.49,154.793 146.657,156.127 146.5,157.5 Z"/></g>
<g><path style="opacity:0.639" fill="#e5ddcd" d="M 167.5,164.5 C 166.662,164.842 166.328,165.508 166.5,166.5C 165.566,165.432 165.232,164.099 165.5,162.5C 165.82,159.102 165.487,155.768 164.5,152.5C 163.817,152.863 163.15,153.196 162.5,153.5C 163.183,151.824 164.517,151.157 166.5,151.5C 166.372,155.881 166.705,160.215 167.5,164.5 Z"/></g>
<g><path style="opacity:0.216" fill="#c0b4a8" d="M 246.5,167.5 C 246.5,167.833 246.5,168.167 246.5,168.5C 246.5,172.5 246.5,176.5 246.5,180.5C 246.167,180.5 245.833,180.5 245.5,180.5C 244.673,175.015 244.173,169.348 244,163.5C 242.989,164.337 241.822,164.67 240.5,164.5C 240.5,163.833 240.833,163.5 241.5,163.5C 242.482,162.859 243.482,162.193 244.5,161.5C 245.169,163.631 245.835,165.631 246.5,167.5 Z"/></g>
<g><path style="opacity:0.051" fill="#f0ebe1" d="M 329.5,153.5 C 330.167,154.167 330.833,154.833 331.5,155.5C 331.325,157.621 331.659,159.621 332.5,161.5C 332.5,161.833 332.5,162.167 332.5,162.5C 333.15,170.419 333.15,178.419 332.5,186.5C 332.815,182.629 332.482,178.962 331.5,175.5C 331.81,172.287 331.477,169.287 330.5,166.5C 330.5,164.5 330.5,162.5 330.5,160.5C 329.781,158.236 329.448,155.903 329.5,153.5 Z"/></g>
<g><path style="opacity:0.996" fill="#dfc695" d="M 165.5,162.5 C 165.232,164.099 165.566,165.432 166.5,166.5C 166.5,167.833 166.5,169.167 166.5,170.5C 165.391,170.443 164.391,170.11 163.5,169.5C 163.672,168.508 163.338,167.842 162.5,167.5C 162.5,166.5 162.5,165.5 162.5,164.5C 161.5,164.5 160.5,164.5 159.5,164.5C 159.5,163.833 159.833,163.5 160.5,163.5C 162.124,163.36 163.29,164.027 164,165.5C 164.232,164.263 164.732,163.263 165.5,162.5 Z"/></g>
<g><path style="opacity:0.032" fill="#faf7f4" d="M 174.5,164.5 C 175.441,169.07 175.774,173.737 175.5,178.5C 175.167,178.5 174.833,178.5 174.5,178.5C 174.721,175.721 174.388,173.054 173.5,170.5C 173.205,168.265 173.539,166.265 174.5,164.5 Z"/></g>
<g><path style="opacity:0.98" fill="#d0b168" d="M 192.5,161.5 C 192.5,164.5 192.5,167.5 192.5,170.5C 192.5,174.833 192.5,179.167 192.5,183.5C 191.833,179.167 191.167,174.833 190.5,170.5C 190.5,167.833 190.5,165.167 190.5,162.5C 190.409,160.302 191.075,159.969 192.5,161.5 Z"/></g>
<g><path style="opacity:0.18" fill="#d3d3d1" d="M 297.5,162.5 C 297.833,162.5 298.167,162.5 298.5,162.5C 299.265,165.096 299.599,167.763 299.5,170.5C 298.469,168.039 297.802,165.373 297.5,162.5 Z"/></g>
<g><path style="opacity:0.929" fill="#8a7c67" d="M 297.5,155.5 C 298.167,155.5 298.833,155.5 299.5,155.5C 299.198,158.059 299.532,160.393 300.5,162.5C 300.325,164.621 300.659,166.621 301.5,168.5C 301.5,172.833 301.5,177.167 301.5,181.5C 300.833,178.833 300.167,176.167 299.5,173.5C 299.5,172.5 299.5,171.5 299.5,170.5C 299.599,167.763 299.265,165.096 298.5,162.5C 298.5,162.167 298.5,161.833 298.5,161.5C 298.672,160.508 298.338,159.842 297.5,159.5C 297.5,158.167 297.5,156.833 297.5,155.5 Z"/></g>
<g><path style="opacity:0.996" fill="#e6cb5d" d="M 330.5,160.5 C 330.5,162.5 330.5,164.5 330.5,166.5C 330.591,168.698 329.925,169.031 328.5,167.5C 328.5,166.5 328.5,165.5 328.5,164.5C 328.34,162.801 328.506,161.134 329,159.5C 329.383,160.056 329.883,160.389 330.5,160.5 Z"/></g>
<g><path style="opacity:0.857" fill="#e4bd5b" d="M 33.5,161.5 C 34.1667,161.833 34.8333,162.167 35.5,162.5C 35.5,165.5 35.5,168.5 35.5,171.5C 34.8333,171.5 34.1667,171.5 33.5,171.5C 33.5,168.167 33.5,164.833 33.5,161.5 Z"/></g>
<g><path style="opacity:0.333" fill="#d2c4ad" d="M 197.5,152.5 C 198.492,152.328 199.158,152.662 199.5,153.5C 198.527,155.948 198.194,158.615 198.5,161.5C 198.5,164.5 198.5,167.5 198.5,170.5C 198.5,175.167 198.5,179.833 198.5,184.5C 198.5,186.833 198.5,189.167 198.5,191.5C 198.167,191.5 197.833,191.5 197.5,191.5C 197.5,178.5 197.5,165.5 197.5,152.5 Z"/></g>
<g><path style="opacity:0.988" fill="#e4c789" d="M 198.5,161.5 C 199.833,161.5 200.5,162.167 200.5,163.5C 200.5,165.833 200.5,168.167 200.5,170.5C 199.833,170.5 199.167,170.5 198.5,170.5C 198.5,167.5 198.5,164.5 198.5,161.5 Z"/></g>
<g><path style="opacity:0.894" fill="#d9ba6a" d="M 247.5,160.5 C 247.5,161.167 247.833,161.5 248.5,161.5C 248.5,161.833 248.5,162.167 248.5,162.5C 248.5,164.833 248.5,167.167 248.5,169.5C 247.833,169.167 247.167,168.833 246.5,168.5C 246.5,168.167 246.5,167.833 246.5,167.5C 246.198,164.941 246.532,162.607 247.5,160.5 Z"/></g>
<g><path style="opacity:0.996" fill="#e6c45c" d="M 336.5,159.5 C 336.833,159.5 337.167,159.5 337.5,159.5C 338.234,160.708 338.567,162.041 338.5,163.5C 338.5,165.167 338.5,166.833 338.5,168.5C 337.833,168.5 337.167,168.5 336.5,168.5C 336.5,166.5 336.5,164.5 336.5,162.5C 336.5,161.5 336.5,160.5 336.5,159.5 Z"/></g>
<g><path style="opacity:0.121" fill="#f2f1f0" d="M 119.5,162.5 C 120.167,162.5 120.5,162.833 120.5,163.5C 120.614,174.371 121.28,185.204 122.5,196C 122.057,197.825 121.723,199.658 121.5,201.5C 119.62,201.771 118.287,201.104 117.5,199.5C 118.5,199.5 119.5,199.5 120.5,199.5C 119.656,187.187 119.323,174.854 119.5,162.5 Z"/></g>
<g><path style="opacity:0.996" fill="#d5b982" d="M 172.5,163.5 C 173.5,163.5 174.5,163.5 175.5,163.5C 179.5,163.5 183.5,163.5 187.5,163.5C 187.5,163.833 187.5,164.167 187.5,164.5C 183.167,165.833 178.833,165.833 174.5,164.5C 173.539,166.265 173.205,168.265 173.5,170.5C 173.167,170.5 172.833,170.5 172.5,170.5C 172.5,168.167 172.5,165.833 172.5,163.5 Z"/></g>
<g><path style="opacity:0.996" fill="#d4ac4f" d="M 274.5,159.5 C 274.833,159.5 275.167,159.5 275.5,159.5C 275.5,159.833 275.5,160.167 275.5,160.5C 275.5,163.167 275.5,165.833 275.5,168.5C 274.833,168.5 274.167,168.5 273.5,168.5C 273.5,167.167 273.5,165.833 273.5,164.5C 273.216,162.585 273.549,160.919 274.5,159.5 Z"/></g>
<g><path style="opacity:0.006" fill="#f2f1ed" d="M 305.5,162.5 C 306.492,162.328 307.158,162.662 307.5,163.5C 307.5,168.167 307.5,172.833 307.5,177.5C 306.787,172.602 306.121,167.602 305.5,162.5 Z"/></g>
<g><path style="opacity:0.278" fill="#d6d5dd" d="M 37.5,159.5 C 37.8333,160.167 38.1667,160.833 38.5,161.5C 37.7251,165.486 37.3918,169.486 37.5,173.5C 37.5,179.833 37.5,186.167 37.5,192.5C 37.1667,192.5 36.8333,192.5 36.5,192.5C 36.5,191.167 36.5,189.833 36.5,188.5C 36.5,184.167 36.5,179.833 36.5,175.5C 36.1786,169.974 36.5119,164.64 37.5,159.5 Z"/></g>
<g><path style="opacity:0.98" fill="#d4b259" d="M 138.5,159.5 C 138.5,162.833 138.5,166.167 138.5,169.5C 137.833,169.5 137.167,169.5 136.5,169.5C 136.5,167.5 136.5,165.5 136.5,163.5C 136.157,161.517 136.824,160.183 138.5,159.5 Z"/></g>
<g><path style="opacity:0.996" fill="#d6b05c" d="M 220.5,161.5 C 220.5,164.5 220.5,167.5 220.5,170.5C 219.833,170.5 219.167,170.5 218.5,170.5C 218.5,167.833 218.5,165.167 218.5,162.5C 218.409,160.302 219.075,159.969 220.5,161.5 Z"/></g>
<g><path style="opacity:0.714" fill="#e2c98e" d="M 27.5,163.5 C 27.5,163.833 27.5,164.167 27.5,164.5C 27.5,167.167 27.5,169.833 27.5,172.5C 25.6122,174.988 24.9455,177.988 25.5,181.5C 24.5128,176.695 24.1795,171.695 24.5,166.5C 24.5,166.167 24.5,165.833 24.5,165.5C 25.2223,164.449 26.2223,163.782 27.5,163.5 Z"/></g>
<g><path style="opacity:0.976" fill="#967e70" d="M 35.5,155.5 C 36.1667,155.833 36.8333,156.167 37.5,156.5C 37.5,157.5 37.5,158.5 37.5,159.5C 36.5119,164.64 36.1786,169.974 36.5,175.5C 36.1667,175.5 35.8333,175.5 35.5,175.5C 35.5,174.167 35.5,172.833 35.5,171.5C 35.5,168.5 35.5,165.5 35.5,162.5C 35.5,160.167 35.5,157.833 35.5,155.5 Z"/></g>
<g><path style="opacity:0.31" fill="#e4ca97" d="M 54.5,163.5 C 54.8333,163.5 55.1667,163.5 55.5,163.5C 55.5,166.167 55.5,168.833 55.5,171.5C 53.5698,175.373 52.9031,179.706 53.5,184.5C 53.5,185.5 53.5,186.5 53.5,187.5C 52.5084,180.352 52.175,173.019 52.5,165.5C 49.9407,165.802 47.6074,165.468 45.5,164.5C 47.8333,164.5 50.1667,164.5 52.5,164.5C 53.1667,164.167 53.8333,163.833 54.5,163.5 Z"/></g>
<g><path style="opacity:0.996" fill="#a37b24" d="M 136.5,169.5 C 137.167,169.5 137.833,169.5 138.5,169.5C 138.5,173.833 138.5,178.167 138.5,182.5C 137.833,182.5 137.167,182.5 136.5,182.5C 136.5,178.167 136.5,173.833 136.5,169.5 Z"/></g>
<g><path style="opacity:0.447" fill="#dfcfaf" d="M 172.5,163.5 C 172.5,165.833 172.5,168.167 172.5,170.5C 171.521,173.625 171.187,176.958 171.5,180.5C 171.813,184.042 171.479,187.375 170.5,190.5C 170.5,184.5 170.5,178.5 170.5,172.5C 170.5,169.833 170.5,167.167 170.5,164.5C 171.268,163.737 171.768,162.737 172,161.5C 172.464,162.094 172.631,162.761 172.5,163.5 Z"/></g>
<g><path style="opacity:0.996" fill="#9b651b" d="M 273.5,168.5 C 274.167,168.5 274.833,168.5 275.5,168.5C 275.5,168.833 275.5,169.167 275.5,169.5C 275.813,173.042 275.479,176.375 274.5,179.5C 274.768,177.901 274.434,176.568 273.5,175.5C 273.5,173.167 273.5,170.833 273.5,168.5 Z"/></g>
<g><path style="opacity:0.286" fill="#b5aaa0" d="M 277.5,159.5 C 277.833,159.5 278.167,159.5 278.5,159.5C 278.427,161.027 279.094,162.027 280.5,162.5C 280.5,164.167 280.5,165.833 280.5,167.5C 281.254,172.463 281.587,177.463 281.5,182.5C 281.5,184.833 281.5,187.167 281.5,189.5C 281.167,189.5 280.833,189.5 280.5,189.5C 279.88,179.297 278.88,169.297 277.5,159.5 Z"/></g>
<g><path style="opacity:0.996" fill="#9f7825" d="M 280.5,167.5 C 281.167,167.833 281.833,168.167 282.5,168.5C 282.5,169.167 282.833,169.5 283.5,169.5C 283.5,171.5 283.5,173.5 283.5,175.5C 284.01,178.388 283.344,180.721 281.5,182.5C 281.587,177.463 281.254,172.463 280.5,167.5 Z"/></g>
<g><path style="opacity:0.29" fill="#bfb7aa" d="M 251.5,160.5 C 252.167,161.167 252.833,161.833 253.5,162.5C 253.5,164.833 253.5,167.167 253.5,169.5C 254.127,174.141 254.46,178.807 254.5,183.5C 254.795,185.735 254.461,187.735 253.5,189.5C 252.502,179.864 251.836,170.197 251.5,160.5 Z"/></g>
<g><path style="opacity:0.046" fill="#c9c9c6" d="M 333.5,163.5 C 335.436,167.715 336.103,172.381 335.5,177.5C 334.784,172.936 334.117,168.269 333.5,163.5 Z"/></g>
<g><path style="opacity:0.475" fill="#8e7a64" d="M 332.5,162.5 C 332.5,162.167 332.5,161.833 332.5,161.5C 333.833,161.833 335.167,162.167 336.5,162.5C 336.5,164.5 336.5,166.5 336.5,168.5C 337.314,173.119 337.647,177.786 337.5,182.5C 337.802,185.059 337.468,187.393 336.5,189.5C 336.817,185.298 336.483,181.298 335.5,177.5C 336.103,172.381 335.436,167.715 333.5,163.5C 333.5,162.833 333.167,162.5 332.5,162.5 Z"/></g>
<g><path style="opacity:0.586" fill="#cdb278" d="M 82.5,161.5 C 82.5,162.167 82.8333,162.5 83.5,162.5C 83.5,162.833 83.5,163.167 83.5,163.5C 83.5,165.833 83.5,168.167 83.5,170.5C 81.744,171.552 81.0773,173.219 81.5,175.5C 80.5386,173.735 80.2053,171.735 80.5,169.5C 80.5,168.167 80.5,166.833 80.5,165.5C 77.2869,165.81 74.2869,165.477 71.5,164.5C 74.8333,164.5 78.1667,164.5 81.5,164.5C 81.2627,163.209 81.596,162.209 82.5,161.5 Z"/></g>
<g><path style="opacity:0.571" fill="#c5a766" d="M 90.5,161.5 C 90.1765,168.022 90.5098,174.355 91.5,180.5C 91.5,181.833 91.5,183.167 91.5,184.5C 89.6565,186.279 88.9898,188.612 89.5,191.5C 88.1667,191.5 86.8333,191.5 85.5,191.5C 85.5,191.167 85.5,190.833 85.5,190.5C 86.5,190.5 87.5,190.5 88.5,190.5C 87.536,181.022 87.536,171.689 88.5,162.5C 89.2216,162.082 89.7216,161.416 90,160.5C 90.3988,160.728 90.5654,161.062 90.5,161.5 Z"/></g>
<g><path style="opacity:0.016" fill="#efeeee" d="M 92.5,163.5 C 92.7087,174.453 93.7087,185.286 95.5,196C 95.6932,198.008 95.0265,199.508 93.5,200.5C 93.5,200.167 93.5,199.833 93.5,199.5C 93.8064,196.615 93.4731,193.948 92.5,191.5C 91.5318,189.393 91.1984,187.059 91.5,184.5C 91.5,183.167 91.5,181.833 91.5,180.5C 91.1668,174.07 91.5002,168.403 92.5,163.5 Z"/></g>
<g><path style="opacity:0.996" fill="#b58d2c" d="M 218.5,170.5 C 219.167,170.5 219.833,170.5 220.5,170.5C 220.5,170.833 220.5,171.167 220.5,171.5C 220.666,175.514 220.499,179.514 220,183.5C 219.817,180.635 219.317,177.969 218.5,175.5C 218.5,173.833 218.5,172.167 218.5,170.5 Z"/></g>
<g><path style="opacity:0.118" fill="#edebe2" d="M 275.5,160.5 C 276.29,161.609 276.79,162.942 277,164.5C 277.5,173.16 277.666,181.827 277.5,190.5C 277.167,190.5 276.833,190.5 276.5,190.5C 276.5,187.833 276.5,185.167 276.5,182.5C 276.818,177.968 276.485,173.634 275.5,169.5C 275.5,169.167 275.5,168.833 275.5,168.5C 275.5,165.833 275.5,163.167 275.5,160.5 Z"/></g>
<g><path style="opacity:0.514" fill="#ddd6c1" d="M 292.5,163.5 C 292.833,163.5 293.167,163.5 293.5,163.5C 290.713,164.477 287.713,164.81 284.5,164.5C 284.5,167.5 284.5,170.5 284.5,173.5C 284.5,174.167 284.5,174.833 284.5,175.5C 284.167,175.5 283.833,175.5 283.5,175.5C 283.5,173.5 283.5,171.5 283.5,169.5C 283.5,167.5 283.5,165.5 283.5,163.5C 286.5,163.5 289.5,163.5 292.5,163.5 Z"/></g>
<g><path style="opacity:0.996" fill="#a77f2b" d="M 308.5,168.5 C 309.396,169.506 310.062,169.506 310.5,168.5C 311.486,172.97 311.819,177.637 311.5,182.5C 310.833,182.5 310.167,182.5 309.5,182.5C 309.167,177.833 308.833,173.167 308.5,168.5 Z"/></g>
<g><path style="opacity:0.028" fill="#fafbf6" d="M 312.5,172.5 C 313.653,178.653 313.82,184.986 313,191.5C 312.768,192.737 312.268,193.737 311.5,194.5C 311.5,193.5 311.5,192.5 311.5,191.5C 311.5,190.5 311.5,189.5 311.5,188.5C 312.488,183.36 312.821,178.026 312.5,172.5 Z"/></g>
<g><path style="opacity:0.996" fill="#a87f2a" d="M 330.5,166.5 C 331.477,169.287 331.81,172.287 331.5,175.5C 331.5,177.833 331.5,180.167 331.5,182.5C 330.833,182.5 330.167,182.5 329.5,182.5C 329.587,177.463 329.254,172.463 328.5,167.5C 329.925,169.031 330.591,168.698 330.5,166.5 Z"/></g>
<g><path style="opacity:0.01" fill="#fcfbfb" d="M 37.5,173.5 C 38.3276,179.319 38.8276,185.319 39,191.5C 39.7172,192.044 40.2172,192.711 40.5,193.5C 40.1667,193.5 39.8333,193.5 39.5,193.5C 38.8333,193.167 38.1667,192.833 37.5,192.5C 37.5,186.167 37.5,179.833 37.5,173.5 Z"/></g>
<g><path style="opacity:0.984" fill="#a87b1f" d="M 55.5,171.5 C 55.5,175.833 55.5,180.167 55.5,184.5C 54.8333,184.5 54.1667,184.5 53.5,184.5C 52.9031,179.706 53.5698,175.373 55.5,171.5 Z"/></g>
<g><path style="opacity:0.98" fill="#a47e5a" d="M 90.5,161.5 C 92.3797,161.229 93.713,161.896 94.5,163.5C 93.8333,163.5 93.1667,163.5 92.5,163.5C 91.5002,168.403 91.1668,174.07 91.5,180.5C 90.5098,174.355 90.1765,168.022 90.5,161.5 Z"/></g>
<g><path style="opacity:0.533" fill="#cdb17d" d="M 145.5,170.5 C 144.521,173.625 144.187,176.958 144.5,180.5C 143.527,178.052 143.194,175.385 143.5,172.5C 143.242,170.19 143.242,168.19 143.5,166.5C 144.268,165.737 144.768,164.737 145,163.5C 145.497,165.81 145.663,168.143 145.5,170.5 Z"/></g>
<g><path style="opacity:1" fill="#ae8d46" d="M 172.5,170.5 C 172.833,170.5 173.167,170.5 173.5,170.5C 174.388,173.054 174.721,175.721 174.5,178.5C 174.5,179.833 174.5,181.167 174.5,182.5C 173.833,182.833 173.167,183.167 172.5,183.5C 172.737,182.209 172.404,181.209 171.5,180.5C 171.187,176.958 171.521,173.625 172.5,170.5 Z"/></g>
<g><path style="opacity:0.996" fill="#a87f31" d="M 246.5,168.5 C 247.167,168.833 247.833,169.167 248.5,169.5C 249.314,174.119 249.647,178.786 249.5,183.5C 248.5,183.5 247.5,183.5 246.5,183.5C 246.5,182.5 246.5,181.5 246.5,180.5C 246.5,176.5 246.5,172.5 246.5,168.5 Z"/></g>
<g><path style="opacity:0.506" fill="#d9d0b7" d="M 310.5,163.5 C 313.833,163.5 317.167,163.5 320.5,163.5C 318.052,164.473 315.385,164.806 312.5,164.5C 312.5,167.167 312.5,169.833 312.5,172.5C 312.821,178.026 312.488,183.36 311.5,188.5C 311.5,186.5 311.5,184.5 311.5,182.5C 311.819,177.637 311.486,172.97 310.5,168.5C 310.5,166.833 310.5,165.167 310.5,163.5 Z"/></g>
<g><path style="opacity:0.996" fill="#ac8731" d="M 83.5,170.5 C 83.5,174.833 83.5,179.167 83.5,183.5C 82.8333,183.5 82.1667,183.5 81.5,183.5C 81.5,180.833 81.5,178.167 81.5,175.5C 81.0773,173.219 81.744,171.552 83.5,170.5 Z"/></g>
<g><path style="opacity:0.802" fill="#b08a3e" d="M 116.5,169.5 C 117.167,169.5 117.833,169.5 118.5,169.5C 118.82,176.738 118.153,183.738 116.5,190.5C 116.5,183.5 116.5,176.5 116.5,169.5 Z"/></g>
<g><path style="opacity:0.988" fill="#b08c3d" d="M 336.5,168.5 C 337.167,168.5 337.833,168.5 338.5,168.5C 339.369,170.717 339.702,173.05 339.5,175.5C 339.5,177.833 339.5,180.167 339.5,182.5C 338.833,182.5 338.167,182.5 337.5,182.5C 337.647,177.786 337.314,173.119 336.5,168.5 Z"/></g>
<g><path style="opacity:0.692" fill="#b38b2d" d="M 33.5,171.5 C 34.1667,171.5 34.8333,171.5 35.5,171.5C 35.5,172.833 35.5,174.167 35.5,175.5C 36.0545,179.012 35.3878,182.012 33.5,184.5C 33.5,180.167 33.5,175.833 33.5,171.5 Z"/></g>
<g><path style="opacity:0.984" fill="#ae8429" d="M 61.5,170.5 C 62.1667,170.5 62.8333,170.5 63.5,170.5C 63.5,175.167 63.5,179.833 63.5,184.5C 62.8333,184.5 62.1667,184.5 61.5,184.5C 61.5,179.833 61.5,175.167 61.5,170.5 Z"/></g>
<g><path style="opacity:0.49" fill="#d8d8d8" d="M 83.5,163.5 C 83.8333,163.5 84.1667,163.5 84.5,163.5C 85.2183,172.482 85.5516,181.482 85.5,190.5C 85.5,190.833 85.5,191.167 85.5,191.5C 84.8333,191.5 84.1667,191.5 83.5,191.5C 83.5,188.833 83.5,186.167 83.5,183.5C 83.5,179.167 83.5,174.833 83.5,170.5C 83.5,168.167 83.5,165.833 83.5,163.5 Z"/></g>
<g><path style="opacity:0.996" fill="#b9943b" d="M 108.5,166.5 C 109.167,167.5 109.833,168.5 110.5,169.5C 110.818,174.032 110.485,178.366 109.5,182.5C 108.6,177.228 108.267,171.895 108.5,166.5 Z"/></g>
<g><path style="opacity:0.996" fill="#8f7342" d="M 110.5,169.5 C 111.473,171.948 111.806,174.615 111.5,177.5C 111.5,181.167 111.5,184.833 111.5,188.5C 110.833,188.833 110.167,189.167 109.5,189.5C 109.5,187.167 109.5,184.833 109.5,182.5C 110.485,178.366 110.818,174.032 110.5,169.5 Z"/></g>
<g><path style="opacity:0.341" fill="#e5e0dc" d="M 111.5,159.5 C 111.833,159.5 112.167,159.5 112.5,159.5C 112.576,165.809 112.576,171.809 112.5,177.5C 112.167,177.5 111.833,177.5 111.5,177.5C 111.806,174.615 111.473,171.948 110.5,169.5C 110.5,166.5 110.5,163.5 110.5,160.5C 110.5,159.833 110.833,159.5 111.5,159.5 Z"/></g>
<g><path style="opacity:0.965" fill="#987642" d="M 163.5,169.5 C 164.391,170.11 165.391,170.443 166.5,170.5C 166.5,177.167 166.5,183.833 166.5,190.5C 166.5,191.5 166.5,192.5 166.5,193.5C 166.5,193.833 166.5,194.167 166.5,194.5C 165.778,194.918 165.278,195.584 165,196.5C 164.501,192.179 164.334,187.846 164.5,183.5C 165.645,179.689 165.812,175.689 165,171.5C 164.814,174.036 164.314,176.369 163.5,178.5C 163.5,175.5 163.5,172.5 163.5,169.5 Z"/></g>
<g><path style="opacity:0.294" fill="#f7f6f4" d="M 167.5,164.5 C 167.197,173.251 167.53,181.918 168.5,190.5C 167.833,190.5 167.167,190.5 166.5,190.5C 166.5,183.833 166.5,177.167 166.5,170.5C 166.5,169.167 166.5,167.833 166.5,166.5C 166.328,165.508 166.662,164.842 167.5,164.5 Z"/></g>
<g><path style="opacity:0.086" fill="#f5f4ec" d="M 229.5,164.5 C 229.467,168.869 229.8,173.202 230.5,177.5C 230.167,177.5 229.833,177.5 229.5,177.5C 229.167,177.5 228.833,177.5 228.5,177.5C 228.5,174.833 228.5,172.167 228.5,169.5C 228.216,167.585 228.549,165.919 229.5,164.5 Z"/></g>
<g><path style="opacity:0.996" fill="#a47820" d="M 253.5,169.5 C 254.167,169.5 254.833,169.5 255.5,169.5C 255.232,171.099 255.566,172.432 256.5,173.5C 256.5,176.833 256.5,180.167 256.5,183.5C 255.833,183.5 255.167,183.5 254.5,183.5C 254.46,178.807 254.127,174.141 253.5,169.5 Z"/></g>
<g><path style="opacity:0.98" fill="#b7944e" d="M 275.5,169.5 C 276.485,173.634 276.818,177.968 276.5,182.5C 275.833,182.5 275.167,182.5 274.5,182.5C 274.5,181.5 274.5,180.5 274.5,179.5C 275.479,176.375 275.813,173.042 275.5,169.5 Z"/></g>
<g><path style="opacity:0.996" fill="#9a6e1b" d="M 301.5,168.5 C 302.167,168.5 302.833,168.5 303.5,168.5C 303.5,170.833 303.5,173.167 303.5,175.5C 303.405,177.786 302.738,179.786 301.5,181.5C 301.5,177.167 301.5,172.833 301.5,168.5 Z"/></g>
<g><path style="opacity:0.996" fill="#b5912e" d="M 27.5,172.5 C 28.0894,176.971 27.4228,180.971 25.5,184.5C 25.5,183.5 25.5,182.5 25.5,181.5C 24.9455,177.988 25.6122,174.988 27.5,172.5 Z"/></g>
<g><path style="opacity:0.979" fill="#987b55" d="M 27.5,164.5 C 27.8333,164.5 28.1667,164.5 28.5,164.5C 28.5,173.833 28.5,183.167 28.5,192.5C 27.596,193.209 27.2627,194.209 27.5,195.5C 27.1667,195.5 26.8333,195.5 26.5,195.5C 25.6561,191.901 25.3227,188.234 25.5,184.5C 27.4228,180.971 28.0894,176.971 27.5,172.5C 27.5,169.833 27.5,167.167 27.5,164.5 Z"/></g>
<g><path style="opacity:0.992" fill="#ab8c40" d="M 198.5,170.5 C 199.167,170.5 199.833,170.5 200.5,170.5C 200.5,175.167 200.5,179.833 200.5,184.5C 199.833,184.5 199.167,184.5 198.5,184.5C 198.5,179.833 198.5,175.167 198.5,170.5 Z"/></g>
<g><path style="opacity:0.994" fill="#b88f2e" d="M 227.5,160.5 C 227.19,163.713 227.523,166.713 228.5,169.5C 228.5,172.167 228.5,174.833 228.5,177.5C 228.5,179.833 228.5,182.167 228.5,184.5C 227.833,184.833 227.167,185.167 226.5,185.5C 226.5,179.167 226.5,172.833 226.5,166.5C 226.205,164.265 226.539,162.265 227.5,160.5 Z"/></g>
<g><path style="opacity:0.983" fill="#987d5b" d="M 35.5,175.5 C 35.8333,175.5 36.1667,175.5 36.5,175.5C 36.5,179.833 36.5,184.167 36.5,188.5C 35.7321,187.737 35.2321,186.737 35,185.5C 35.0302,188.361 34.1969,190.695 32.5,192.5C 33.3686,190.283 33.702,187.95 33.5,185.5C 33.5,185.167 33.5,184.833 33.5,184.5C 35.3878,182.012 36.0545,179.012 35.5,175.5 Z"/></g>
<g><path style="opacity:0.502" fill="#dcc59e" d="M 60.5,170.5 C 60.8333,170.5 61.1667,170.5 61.5,170.5C 61.5,175.167 61.5,179.833 61.5,184.5C 61.5,185.833 61.5,187.167 61.5,188.5C 59.5048,182.566 59.1715,176.566 60.5,170.5 Z"/></g>
<g><path style="opacity:0.502" fill="#e2cfaf" d="M 80.5,169.5 C 80.2053,171.735 80.5386,173.735 81.5,175.5C 81.5,178.167 81.5,180.833 81.5,183.5C 81.5,186.167 81.5,188.833 81.5,191.5C 79.4811,184.223 79.1478,176.89 80.5,169.5 Z"/></g>
<g><path style="opacity:0.253" fill="#dbc7a6" d="M 132.5,164.5 C 132.5,164.167 132.5,163.833 132.5,163.5C 132.833,163.5 133.167,163.5 133.5,163.5C 134.5,163.5 135.5,163.5 136.5,163.5C 136.5,165.5 136.5,167.5 136.5,169.5C 136.5,173.833 136.5,178.167 136.5,182.5C 136.5,182.833 136.5,183.167 136.5,183.5C 135.549,182.081 135.216,180.415 135.5,178.5C 135.095,173.99 135.095,169.324 135.5,164.5C 134.5,164.5 133.5,164.5 132.5,164.5 Z"/></g>
<g><path style="opacity:0.041" fill="#f5f6f7" d="M 147.5,163.5 C 147.912,174.164 148.245,184.83 148.5,195.5C 148.167,195.5 147.833,195.5 147.5,195.5C 147.817,191.298 147.483,187.298 146.5,183.5C 146.5,182.167 146.5,180.833 146.5,179.5C 146.179,173.974 146.512,168.64 147.5,163.5 Z"/></g>
<g><path style="opacity:0.186" fill="#faf7f7" d="M 248.5,162.5 C 250.175,171.611 250.842,180.945 250.5,190.5C 249.833,190.5 249.5,190.167 249.5,189.5C 249.5,187.5 249.5,185.5 249.5,183.5C 249.647,178.786 249.314,174.119 248.5,169.5C 248.5,167.167 248.5,164.833 248.5,162.5 Z"/></g>
<g><path style="opacity:0.034" fill="#e7dfcd" d="M 107.5,164.5 C 107.833,164.5 108.167,164.5 108.5,164.5C 108.5,165.167 108.5,165.833 108.5,166.5C 108.267,171.895 108.6,177.228 109.5,182.5C 109.5,184.833 109.5,187.167 109.5,189.5C 109.338,191.527 109.505,193.527 110,195.5C 110.77,196.598 111.603,196.598 112.5,195.5C 112.5,196.833 112.5,198.167 112.5,199.5C 111.5,199.5 110.5,199.5 109.5,199.5C 107.773,188.048 107.106,176.381 107.5,164.5 Z"/></g>
<g><path style="opacity:0.348" fill="#e1dfdc" d="M 111.5,177.5 C 111.833,177.5 112.167,177.5 112.5,177.5C 113.436,181.735 113.769,186.069 113.5,190.5C 113.44,191.043 113.107,191.376 112.5,191.5C 111.614,190.675 111.281,189.675 111.5,188.5C 111.5,184.833 111.5,181.167 111.5,177.5 Z"/></g>
<g><path style="opacity:0.996" fill="#baaa91" d="M 200.5,163.5 C 200.833,163.5 201.167,163.5 201.5,163.5C 201.667,174.505 201.5,185.505 201,196.5C 199.506,200.304 198.672,199.971 198.5,195.5C 200.414,192.316 201.08,188.649 200.5,184.5C 200.5,179.833 200.5,175.167 200.5,170.5C 200.5,168.167 200.5,165.833 200.5,163.5 Z"/></g>
<g><path style="opacity:0.088" fill="#e9e9e7" d="M 217.5,168.5 C 217.198,171.059 217.532,173.393 218.5,175.5C 218.5,180.5 218.5,185.5 218.5,190.5C 217.61,184.842 216.944,179.008 216.5,173C 216.508,171.293 216.842,169.793 217.5,168.5 Z"/></g>
<g><path style="opacity:0.439" fill="#d3d5da" d="M 28.5,164.5 C 28.8333,164.5 29.1667,164.5 29.5,164.5C 30.3538,173.805 30.6871,183.139 30.5,192.5C 29.8333,193.833 29.1667,193.833 28.5,192.5C 28.5,183.167 28.5,173.833 28.5,164.5 Z"/></g>
<g><path style="opacity:0.052" fill="#e3d9cf" d="M 187.5,162.5 C 188.5,162.5 189.5,162.5 190.5,162.5C 190.5,165.167 190.5,167.833 190.5,170.5C 190.5,177.5 190.5,184.5 190.5,191.5C 190.5,191.833 190.5,192.167 190.5,192.5C 190.167,192.5 189.833,192.5 189.5,192.5C 190.139,182.773 189.472,173.44 187.5,164.5C 187.5,164.167 187.5,163.833 187.5,163.5C 187.5,163.167 187.5,162.833 187.5,162.5 Z"/></g>
<g><path style="opacity:0.173" fill="#f2eee5" d="M 304.5,171.5 C 305.49,177.645 305.823,183.978 305.5,190.5C 303.952,190.179 303.285,189.179 303.5,187.5C 304.483,183.702 304.817,179.702 304.5,175.5C 304.5,174.167 304.5,172.833 304.5,171.5 Z"/></g>
<g><path style="opacity:0.996" fill="#c09839" d="M 145.5,170.5 C 145.19,173.713 145.523,176.713 146.5,179.5C 146.5,180.833 146.5,182.167 146.5,183.5C 145.833,183.5 145.167,183.5 144.5,183.5C 144.5,182.5 144.5,181.5 144.5,180.5C 144.187,176.958 144.521,173.625 145.5,170.5 Z"/></g>
<g><path style="opacity:0.894" fill="#bc9a4c" d="M 164.5,183.5 C 164.167,183.5 163.833,183.5 163.5,183.5C 163.5,181.833 163.5,180.167 163.5,178.5C 164.314,176.369 164.814,174.036 165,171.5C 165.812,175.689 165.645,179.689 164.5,183.5 Z"/></g>
<g><path style="opacity:0.298" fill="#f7f7f3" d="M 229.5,177.5 C 229.833,177.5 230.167,177.5 230.5,177.5C 230.5,185.167 230.5,192.833 230.5,200.5C 228.901,200.768 227.568,200.434 226.5,199.5C 227.931,199.119 228.764,198.119 229,196.5C 229.5,190.175 229.666,183.842 229.5,177.5 Z"/></g>
<g><path style="opacity:0.776" fill="#8e6f41" d="M 283.5,175.5 C 283.833,175.5 284.167,175.5 284.5,175.5C 284.819,180.363 284.486,185.03 283.5,189.5C 282.833,189.5 282.167,189.5 281.5,189.5C 281.5,187.167 281.5,184.833 281.5,182.5C 283.344,180.721 284.01,178.388 283.5,175.5 Z"/></g>
<g><path style="opacity:0.42" fill="#e8dfcf" d="M 339.5,175.5 C 339.833,175.5 340.167,175.5 340.5,175.5C 341.16,176.964 341.493,178.631 341.5,180.5C 341.305,186.128 340.305,191.461 338.5,196.5C 338.5,195.5 338.5,194.5 338.5,193.5C 339.344,189.901 339.677,186.234 339.5,182.5C 339.5,180.167 339.5,177.833 339.5,175.5 Z"/></g>
<g><path style="opacity:0.02" fill="#f6f5f2" d="M 162.5,167.5 C 163.338,167.842 163.672,168.508 163.5,169.5C 163.5,172.5 163.5,175.5 163.5,178.5C 163.5,180.167 163.5,181.833 163.5,183.5C 163.5,188.833 163.5,194.167 163.5,199.5C 164.5,199.5 165.5,199.5 166.5,199.5C 166.5,197.833 166.5,196.167 166.5,194.5C 166.5,194.167 166.5,193.833 166.5,193.5C 167.167,193.5 167.833,193.5 168.5,193.5C 167.94,195.801 167.44,198.134 167,200.5C 165.887,201.711 164.72,201.711 163.5,200.5C 162.501,189.52 162.168,178.52 162.5,167.5 Z"/></g>
<g><path style="opacity:0.282" fill="#beb5ac" d="M 299.5,173.5 C 300.167,176.167 300.833,178.833 301.5,181.5C 301.5,182.833 301.5,184.167 301.5,185.5C 301.946,188.01 301.28,190.01 299.5,191.5C 299.167,191.5 298.833,191.5 298.5,191.5C 299.897,190.181 300.563,188.514 300.5,186.5C 299.703,182.202 299.37,177.868 299.5,173.5 Z"/></g>
<g><path style="opacity:0.984" fill="#a38047" d="M 303.5,175.5 C 303.833,175.5 304.167,175.5 304.5,175.5C 304.817,179.702 304.483,183.702 303.5,187.5C 303.657,186.127 303.49,184.793 303,183.5C 302.722,184.416 302.222,185.082 301.5,185.5C 301.5,184.167 301.5,182.833 301.5,181.5C 302.738,179.786 303.405,177.786 303.5,175.5 Z"/></g>
<g><path style="opacity:0.239" fill="#9b8d7e" d="M 307.5,163.5 C 307.833,163.5 308.167,163.5 308.5,163.5C 308.5,165.167 308.5,166.833 308.5,168.5C 308.833,173.167 309.167,177.833 309.5,182.5C 309.5,185.167 309.5,187.833 309.5,190.5C 309.167,190.5 308.833,190.5 308.5,190.5C 308.414,186.143 308.08,181.81 307.5,177.5C 307.5,172.833 307.5,168.167 307.5,163.5 Z"/></g>
<g><path style="opacity:0.043" fill="#cbc9c9" d="M 326.5,168.5 C 328.075,175.27 328.741,182.27 328.5,189.5C 328.158,190.338 327.492,190.672 326.5,190.5C 326.975,183.254 326.975,175.92 326.5,168.5 Z"/></g>
<g><path style="opacity:0.49" fill="#d4c8ab" d="M 331.5,175.5 C 332.482,178.962 332.815,182.629 332.5,186.5C 332.365,188.554 333.032,190.221 334.5,191.5C 334.167,191.5 333.833,191.5 333.5,191.5C 331.612,189.012 330.945,186.012 331.5,182.5C 331.5,180.167 331.5,177.833 331.5,175.5 Z"/></g>
<g><path style="opacity:0.055" fill="#bdb8ba" d="M 335.5,177.5 C 336.483,181.298 336.817,185.298 336.5,189.5C 336.5,190.5 336.5,191.5 336.5,192.5C 335.508,192.672 334.842,192.338 334.5,191.5C 335.486,187.03 335.819,182.363 335.5,177.5 Z"/></g>
<g><path style="opacity:0.996" fill="#85642b" d="M 337.5,182.5 C 338.167,182.5 338.833,182.5 339.5,182.5C 339.677,186.234 339.344,189.901 338.5,193.5C 337.662,193.842 337.328,194.508 337.5,195.5C 335.204,195.196 334.871,194.196 336.5,192.5C 336.5,191.5 336.5,190.5 336.5,189.5C 337.468,187.393 337.802,185.059 337.5,182.5 Z"/></g>
<g><path style="opacity:0.655" fill="#ad8e62" d="M 171.5,180.5 C 172.404,181.209 172.737,182.209 172.5,183.5C 172.5,186.167 172.5,188.833 172.5,191.5C 170.517,191.157 169.183,191.824 168.5,193.5C 167.833,193.5 167.167,193.5 166.5,193.5C 166.5,192.5 166.5,191.5 166.5,190.5C 167.167,190.5 167.833,190.5 168.5,190.5C 169.167,190.5 169.833,190.5 170.5,190.5C 171.479,187.375 171.813,184.042 171.5,180.5 Z"/></g>
<g><path style="opacity:0.082" fill="#c8c0b7" d="M 245.5,180.5 C 245.833,180.5 246.167,180.5 246.5,180.5C 246.5,181.5 246.5,182.5 246.5,183.5C 246.5,186.167 246.5,188.833 246.5,191.5C 246.077,193.781 246.744,195.448 248.5,196.5C 248.5,197.5 248.5,198.5 248.5,199.5C 247.5,199.5 246.5,199.5 245.5,199.5C 245.3,193.334 245.3,187.001 245.5,180.5 Z"/></g>
<g><path style="opacity:0.827" fill="#ded5c4" d="M 257.5,164.5 C 257.758,173.358 258.091,182.024 258.5,190.5C 257.911,193.64 257.244,196.64 256.5,199.5C 256.5,198.167 256.5,196.833 256.5,195.5C 256.5,191.5 256.5,187.5 256.5,183.5C 256.5,180.167 256.5,176.833 256.5,173.5C 256.19,170.287 256.523,167.287 257.5,164.5 Z"/></g>
<g><path style="opacity:0.021" fill="#f8f5f0" d="M 284.5,173.5 C 285.783,182.407 285.45,191.407 283.5,200.5C 282.209,200.737 281.209,200.404 280.5,199.5C 282.408,198.514 283.408,196.848 283.5,194.5C 283.5,192.833 283.5,191.167 283.5,189.5C 284.486,185.03 284.819,180.363 284.5,175.5C 284.5,174.833 284.5,174.167 284.5,173.5 Z"/></g>
<g><path style="opacity:0.612" fill="#7a581e" d="M 53.5,184.5 C 54.1667,184.5 54.8333,184.5 55.5,184.5C 55.8333,187.167 56.1667,189.833 56.5,192.5C 55.8333,192.833 55.1667,193.167 54.5,193.5C 54.6716,192.508 54.3382,191.842 53.5,191.5C 53.5,190.167 53.5,188.833 53.5,187.5C 53.5,186.5 53.5,185.5 53.5,184.5 Z"/></g>
<g><path style="opacity:0.161" fill="#d9cdbe" d="M 135.5,178.5 C 135.216,180.415 135.549,182.081 136.5,183.5C 136.5,185.833 136.5,188.167 136.5,190.5C 136.077,192.781 136.744,194.448 138.5,195.5C 138.33,200.275 137.33,200.608 135.5,196.5C 135.042,190.312 135.042,184.312 135.5,178.5 Z"/></g>
<g><path style="opacity:0.269" fill="#e2d7c3" d="M 143.5,172.5 C 143.194,175.385 143.527,178.052 144.5,180.5C 144.5,181.5 144.5,182.5 144.5,183.5C 144.802,186.059 144.468,188.393 143.5,190.5C 142.336,184.349 142.336,178.349 143.5,172.5 Z"/></g>
<g><path style="opacity:0.015" fill="#fafaf9" d="M 174.5,178.5 C 174.833,178.5 175.167,178.5 175.5,178.5C 175.667,183.174 176.001,187.841 176.5,192.5C 176.713,195.527 176.047,198.193 174.5,200.5C 174.5,199.167 174.5,197.833 174.5,196.5C 174.5,194.5 174.5,192.5 174.5,190.5C 174.5,187.833 174.5,185.167 174.5,182.5C 174.5,181.167 174.5,179.833 174.5,178.5 Z"/></g>
<g><path style="opacity:0.922" fill="#8c6e3b" d="M 190.5,170.5 C 191.167,174.833 191.833,179.167 192.5,183.5C 192.5,185.833 192.5,188.167 192.5,190.5C 191.833,190.833 191.167,191.167 190.5,191.5C 190.5,184.5 190.5,177.5 190.5,170.5 Z"/></g>
<g><path style="opacity:0.988" fill="#977749" d="M 220.5,171.5 C 221.49,177.645 221.823,183.978 221.5,190.5C 219.744,191.552 219.077,193.219 219.5,195.5C 218.596,194.791 218.263,193.791 218.5,192.5C 218.5,191.833 218.5,191.167 218.5,190.5C 218.5,185.5 218.5,180.5 218.5,175.5C 219.317,177.969 219.817,180.635 220,183.5C 220.499,179.514 220.666,175.514 220.5,171.5 Z"/></g>
<g><path style="opacity:0.633" fill="#cec3b6" d="M 146.5,183.5 C 147.483,187.298 147.817,191.298 147.5,195.5C 147.5,196.833 147.5,198.167 147.5,199.5C 146.5,199.5 145.5,199.5 144.5,199.5C 144.5,198.167 144.5,196.833 144.5,195.5C 146.423,191.971 147.089,187.971 146.5,183.5 Z"/></g>
<g><path style="opacity:0.953" fill="#a18b69" d="M 192.5,170.5 C 193.167,177.167 193.833,183.833 194.5,190.5C 193.833,191.833 193.167,191.833 192.5,190.5C 192.5,188.167 192.5,185.833 192.5,183.5C 192.5,179.167 192.5,174.833 192.5,170.5 Z"/></g>
<g><path style="opacity:0.969" fill="#806036" d="M 246.5,183.5 C 247.5,183.5 248.5,183.5 249.5,183.5C 249.5,185.5 249.5,187.5 249.5,189.5C 248.222,189.782 247.222,190.449 246.5,191.5C 246.5,188.833 246.5,186.167 246.5,183.5 Z"/></g>
<g><path style="opacity:0.996" fill="#6d4615" d="M 274.5,182.5 C 275.167,182.5 275.833,182.5 276.5,182.5C 276.5,185.167 276.5,187.833 276.5,190.5C 274.631,188.365 273.964,185.698 274.5,182.5 Z"/></g>
<g><path style="opacity:0.996" fill="#694b10" d="M 136.5,182.5 C 137.167,182.5 137.833,182.5 138.5,182.5C 138.5,185.167 138.5,187.833 138.5,190.5C 137.833,190.5 137.167,190.5 136.5,190.5C 136.5,188.167 136.5,185.833 136.5,183.5C 136.5,183.167 136.5,182.833 136.5,182.5 Z"/></g>
<g><path style="opacity:0.996" fill="#6d5121" d="M 174.5,182.5 C 174.5,185.167 174.5,187.833 174.5,190.5C 173.833,190.833 173.167,191.167 172.5,191.5C 172.5,188.833 172.5,186.167 172.5,183.5C 173.167,183.167 173.833,182.833 174.5,182.5 Z"/></g>
<g><path style="opacity:0.996" fill="#9b7738" d="M 144.5,183.5 C 145.167,183.5 145.833,183.5 146.5,183.5C 147.089,187.971 146.423,191.971 144.5,195.5C 144.5,194.833 144.167,194.5 143.5,194.5C 142.903,193.861 142.07,193.528 141,193.5C 139.624,193.684 138.791,194.351 138.5,195.5C 136.744,194.448 136.077,192.781 136.5,190.5C 137.167,190.5 137.833,190.5 138.5,190.5C 139.167,190.5 139.833,190.5 140.5,190.5C 141.5,190.5 142.5,190.5 143.5,190.5C 144.468,188.393 144.802,186.059 144.5,183.5 Z"/></g>
<g><path style="opacity:0.988" fill="#7a5522" d="M 36.5,188.5 C 36.5,189.833 36.5,191.167 36.5,192.5C 35.6618,192.842 35.3284,193.508 35.5,194.5C 34.5,194.5 33.5,194.5 32.5,194.5C 32.5,193.833 32.5,193.167 32.5,192.5C 34.1969,190.695 35.0302,188.361 35,185.5C 35.2321,186.737 35.7321,187.737 36.5,188.5 Z"/></g>
<g><path style="opacity:0.996" fill="#a0763c" d="M 63.5,189.5 C 65.5869,190.585 66.9202,192.251 67.5,194.5C 66.0689,194.881 65.2355,195.881 65,197.5C 63.0829,194.085 60.9162,193.751 58.5,196.5C 57.1148,195.053 57.4482,194.053 59.5,193.5C 62.5,193.833 63.8333,192.5 63.5,189.5 Z"/></g>
<g><path style="opacity:0.996" fill="#a28355" d="M 118.5,161.5 C 119.167,161.5 119.5,161.833 119.5,162.5C 119.323,174.854 119.656,187.187 120.5,199.5C 119.5,199.5 118.5,199.5 117.5,199.5C 117.5,197.5 117.5,195.5 117.5,193.5C 115.302,193.12 113.635,193.787 112.5,195.5C 111.603,196.598 110.77,196.598 110,195.5C 109.505,193.527 109.338,191.527 109.5,189.5C 110.167,189.167 110.833,188.833 111.5,188.5C 111.281,189.675 111.614,190.675 112.5,191.5C 113.107,191.376 113.44,191.043 113.5,190.5C 114.167,190.5 114.833,190.5 115.5,190.5C 115.833,190.5 116.167,190.5 116.5,190.5C 118.153,183.738 118.82,176.738 118.5,169.5C 118.5,166.833 118.5,164.167 118.5,161.5 Z"/></g>
<g><path style="opacity:0.996" fill="#a27335" d="M 222.5,189.5 C 223.391,190.11 224.391,190.443 225.5,190.5C 225.833,190.5 226.167,190.5 226.5,190.5C 226.5,191.833 227.167,192.5 228.5,192.5C 228.649,193.552 228.483,194.552 228,195.5C 227.184,194.177 226.017,193.511 224.5,193.5C 224.167,192.167 223.833,192.167 223.5,193.5C 222.5,193.5 221.5,193.5 220.5,193.5C 220.754,195.401 220.42,196.067 219.5,195.5C 219.077,193.219 219.744,191.552 221.5,190.5C 222.167,190.5 222.5,190.167 222.5,189.5 Z"/></g>
<g><path style="opacity:0.996" fill="#835820" d="M 228.5,184.5 C 228.5,187.167 228.5,189.833 228.5,192.5C 227.167,192.5 226.5,191.833 226.5,190.5C 226.5,188.833 226.5,187.167 226.5,185.5C 227.167,185.167 227.833,184.833 228.5,184.5 Z"/></g>
<g><path style="opacity:0.996" fill="#966c34" d="M 254.5,183.5 C 255.167,183.5 255.833,183.5 256.5,183.5C 256.5,187.5 256.5,191.5 256.5,195.5C 254.833,194.833 253.167,194.167 251.5,193.5C 251.167,193.5 250.833,193.5 250.5,193.5C 249.833,193.5 249.167,193.5 248.5,193.5C 250.292,192.691 252.292,192.191 254.5,192C 253.584,191.722 252.918,191.222 252.5,190.5C 253.167,190.5 253.5,190.167 253.5,189.5C 254.461,187.735 254.795,185.735 254.5,183.5 Z"/></g>
<g><path style="opacity:0.973" fill="#a57d45" d="M 273.5,175.5 C 274.434,176.568 274.768,177.901 274.5,179.5C 274.5,180.5 274.5,181.5 274.5,182.5C 273.964,185.698 274.631,188.365 276.5,190.5C 276.833,190.5 277.167,190.5 277.5,190.5C 278.791,190.737 279.791,190.404 280.5,189.5C 280.833,189.5 281.167,189.5 281.5,189.5C 282.167,189.5 282.833,189.5 283.5,189.5C 283.5,191.167 283.5,192.833 283.5,194.5C 282.027,195.071 280.36,195.071 278.5,194.5C 276.847,193.201 275.347,193.534 274,195.5C 272.812,194.437 272.312,193.103 272.5,191.5C 273.488,186.36 273.821,181.026 273.5,175.5 Z"/></g>
<g><path style="opacity:0.996" fill="#8f652e" d="M 303.5,187.5 C 303.285,189.179 303.952,190.179 305.5,190.5C 305.833,190.5 306.167,190.5 306.5,190.5C 306.768,192.099 306.434,193.432 305.5,194.5C 304.328,193.295 302.995,193.295 301.5,194.5C 300.081,193.995 299.415,192.995 299.5,191.5C 301.28,190.01 301.946,188.01 301.5,185.5C 302.222,185.082 302.722,184.416 303,183.5C 303.49,184.793 303.657,186.127 303.5,187.5 Z"/></g>
<g><path style="opacity:0.271" fill="#b5a490" d="M 326.5,190.5 C 326.367,194.85 327.7,195.85 330.5,193.5C 331.167,193.5 331.833,193.5 332.5,193.5C 332.5,193.833 332.5,194.167 332.5,194.5C 329.52,202.208 326.853,202.208 324.5,194.5C 324.34,192.645 325.007,191.312 326.5,190.5 Z"/></g>
<g><path style="opacity:0.996" fill="#7e511d" d="M 329.5,182.5 C 330.167,182.5 330.833,182.5 331.5,182.5C 330.945,186.012 331.612,189.012 333.5,191.5C 333.672,192.492 333.338,193.158 332.5,193.5C 331.833,193.5 331.167,193.5 330.5,193.5C 330.567,192.041 330.234,190.708 329.5,189.5C 329.5,187.167 329.5,184.833 329.5,182.5 Z"/></g>
<g><path style="opacity:0.992" fill="#7b5623" d="M 61.5,184.5 C 62.1667,184.5 62.8333,184.5 63.5,184.5C 63.5,186.167 63.5,187.833 63.5,189.5C 63.8333,192.5 62.5,193.833 59.5,193.5C 59.5,192.833 59.5,192.167 59.5,191.5C 60.5511,190.778 61.2178,189.778 61.5,188.5C 61.5,187.167 61.5,185.833 61.5,184.5 Z"/></g>
<g><path style="opacity:0.996" fill="#8e6832" d="M 91.5,184.5 C 91.1984,187.059 91.5318,189.393 92.5,191.5C 92.8432,193.483 92.1765,194.817 90.5,195.5C 88.9622,192.952 87.2956,192.952 85.5,195.5C 85.1667,195.5 84.8333,195.5 84.5,195.5C 84.1667,194.167 83.8333,192.833 83.5,191.5C 84.1667,191.5 84.8333,191.5 85.5,191.5C 86.8333,191.5 88.1667,191.5 89.5,191.5C 88.9898,188.612 89.6565,186.279 91.5,184.5 Z"/></g>
<g><path style="opacity:0.996" fill="#a87b3c" d="M 174.5,190.5 C 174.5,192.5 174.5,194.5 174.5,196.5C 173.021,195.241 171.354,194.241 169.5,193.5C 169.167,193.5 168.833,193.5 168.5,193.5C 169.183,191.824 170.517,191.157 172.5,191.5C 173.167,191.167 173.833,190.833 174.5,190.5 Z"/></g>
<g><path style="opacity:0.996" fill="#ad803b" d="M 192.5,190.5 C 193.167,191.833 193.833,191.833 194.5,190.5C 195.391,191.11 196.391,191.443 197.5,191.5C 197.833,191.5 198.167,191.5 198.5,191.5C 198.5,192.833 197.833,193.5 196.5,193.5C 194.517,193.157 193.183,193.824 192.5,195.5C 190.952,195.179 190.285,194.179 190.5,192.5C 190.5,192.167 190.5,191.833 190.5,191.5C 191.167,191.167 191.833,190.833 192.5,190.5 Z"/></g>
<g><path style="opacity:0.996" fill="#977437" d="M 198.5,184.5 C 199.167,184.5 199.833,184.5 200.5,184.5C 201.08,188.649 200.414,192.316 198.5,195.5C 197.833,195.167 197.167,194.833 196.5,194.5C 196.5,194.167 196.5,193.833 196.5,193.5C 197.833,193.5 198.5,192.833 198.5,191.5C 198.5,189.167 198.5,186.833 198.5,184.5 Z"/></g>
<g><path style="opacity:0.996" fill="#a77532" d="M 249.5,189.5 C 249.5,190.167 249.833,190.5 250.5,190.5C 251.167,190.5 251.833,190.5 252.5,190.5C 252.918,191.222 253.584,191.722 254.5,192C 252.292,192.191 250.292,192.691 248.5,193.5C 248.5,194.5 248.5,195.5 248.5,196.5C 246.744,195.448 246.077,193.781 246.5,191.5C 247.222,190.449 248.222,189.782 249.5,189.5 Z"/></g>
<g><path style="opacity:0.969" fill="#926727" d="M 309.5,182.5 C 310.167,182.5 310.833,182.5 311.5,182.5C 311.5,184.5 311.5,186.5 311.5,188.5C 311.5,189.5 311.5,190.5 311.5,191.5C 310.596,192.209 310.263,193.209 310.5,194.5C 309.35,195.85 308.683,195.684 308.5,194C 308.989,192.862 309.322,191.695 309.5,190.5C 309.5,187.833 309.5,185.167 309.5,182.5 Z"/></g>
<g><path style="opacity:0.996" fill="#a47531" d="M 328.5,189.5 C 328.833,189.5 329.167,189.5 329.5,189.5C 330.234,190.708 330.567,192.041 330.5,193.5C 327.7,195.85 326.367,194.85 326.5,190.5C 327.492,190.672 328.158,190.338 328.5,189.5 Z"/></g>
<g><path style="opacity:0.325" fill="#c0ae93" d="M 163.5,183.5 C 163.833,183.5 164.167,183.5 164.5,183.5C 164.334,187.846 164.501,192.179 165,196.5C 165.278,195.584 165.778,194.918 166.5,194.5C 166.5,196.167 166.5,197.833 166.5,199.5C 165.5,199.5 164.5,199.5 163.5,199.5C 163.5,194.167 163.5,188.833 163.5,183.5 Z"/></g>
<g><path style="opacity:0.046" fill="#f5f3f3" d="M 201.5,163.5 C 201.833,163.5 202.167,163.5 202.5,163.5C 202.5,163.833 202.5,164.167 202.5,164.5C 202.773,176.871 202.44,189.204 201.5,201.5C 197.684,200.91 196.017,198.577 196.5,194.5C 197.167,194.833 197.833,195.167 198.5,195.5C 198.672,199.971 199.506,200.304 201,196.5C 201.5,185.505 201.667,174.505 201.5,163.5 Z"/></g>
<g><path style="opacity:0.976" fill="#a4855a" d="M 306.5,190.5 C 307.396,191.506 308.062,191.506 308.5,190.5C 308.833,190.5 309.167,190.5 309.5,190.5C 309.322,191.695 308.989,192.862 308.5,194C 308.683,195.684 309.35,195.85 310.5,194.5C 310.53,195.497 310.03,196.164 309,196.5C 307.862,196.011 306.695,195.678 305.5,195.5C 305.5,195.167 305.5,194.833 305.5,194.5C 306.434,193.432 306.768,192.099 306.5,190.5 Z"/></g>
<g><path style="opacity:0.988" fill="#ab8146" d="M 36.5,192.5 C 36.8333,192.5 37.1667,192.5 37.5,192.5C 38.1667,192.833 38.8333,193.167 39.5,193.5C 39.5,194.167 39.5,194.833 39.5,195.5C 38.5326,196.806 37.1993,197.473 35.5,197.5C 35.5,196.5 35.5,195.5 35.5,194.5C 35.3284,193.508 35.6618,192.842 36.5,192.5 Z"/></g>
<g><path style="opacity:0.992" fill="#b08e54" d="M 59.5,191.5 C 59.5,192.167 59.5,192.833 59.5,193.5C 57.4482,194.053 57.1148,195.053 58.5,196.5C 57.791,197.404 56.791,197.737 55.5,197.5C 55.1667,196.167 54.8333,194.833 54.5,193.5C 55.1667,193.167 55.8333,192.833 56.5,192.5C 56.8333,192.5 57.1667,192.5 57.5,192.5C 58.1667,192.167 58.8333,191.833 59.5,191.5 Z"/></g>
<g><path style="opacity:0.984" fill="#946a2a" d="M 81.5,183.5 C 82.1667,183.5 82.8333,183.5 83.5,183.5C 83.5,186.167 83.5,188.833 83.5,191.5C 83.8333,192.833 84.1667,194.167 84.5,195.5C 84.19,196.738 83.69,196.738 83,195.5C 82.79,193.942 82.29,192.609 81.5,191.5C 81.5,188.833 81.5,186.167 81.5,183.5 Z"/></g>
<g><path style="opacity:0.976" fill="#907756" d="M 333.5,191.5 C 333.833,191.5 334.167,191.5 334.5,191.5C 334.842,192.338 335.508,192.672 336.5,192.5C 334.871,194.196 335.204,195.196 337.5,195.5C 337.092,196.643 336.425,197.643 335.5,198.5C 334.85,196.816 333.85,195.483 332.5,194.5C 332.5,194.167 332.5,193.833 332.5,193.5C 333.338,193.158 333.672,192.492 333.5,191.5 Z"/></g>
<g><path style="opacity:0.4" fill="#dadad4" d="M 90.5,195.5 C 90.0882,197.973 91.0882,199.306 93.5,199.5C 93.5,199.833 93.5,200.167 93.5,200.5C 92.2073,201.645 91.0407,201.311 90,199.5C 89.7978,197.744 89.2978,196.078 88.5,194.5C 87.1268,196.49 86.1268,198.657 85.5,201C 84.0024,201.585 83.0024,201.085 82.5,199.5C 84.9118,199.306 85.9118,197.973 85.5,195.5C 87.2956,192.952 88.9622,192.952 90.5,195.5 Z"/></g>
<g><path style="opacity:0.996" fill="#b5a286" d="M 189.5,192.5 C 189.833,192.5 190.167,192.5 190.5,192.5C 190.285,194.179 190.952,195.179 192.5,195.5C 192.5,196.833 192.5,198.167 192.5,199.5C 191.5,199.5 190.5,199.5 189.5,199.5C 189.5,197.5 189.5,195.5 189.5,193.5C 189.5,193.167 189.5,192.833 189.5,192.5 Z"/></g>
<g><path style="opacity:0.255" fill="#c0b7aa" d="M 251.5,193.5 C 253.167,194.167 254.833,194.833 256.5,195.5C 256.5,196.833 256.5,198.167 256.5,199.5C 256.294,201.549 255.461,201.883 254,200.5C 253.847,197.849 253.013,195.516 251.5,193.5 Z"/></g>
<g><path style="opacity:0.918" fill="#b1a494" d="M 278.5,194.5 C 280.36,195.071 282.027,195.071 283.5,194.5C 283.408,196.848 282.408,198.514 280.5,199.5C 279.691,197.972 279.024,196.306 278.5,194.5 Z"/></g>
<g><path style="opacity:0.984" fill="#af894c" d="M 28.5,192.5 C 29.1667,193.833 29.8333,193.833 30.5,192.5C 31.1667,192.5 31.8333,192.5 32.5,192.5C 32.5,193.167 32.5,193.833 32.5,194.5C 31.6618,194.842 31.3284,195.508 31.5,196.5C 30.4168,196.539 29.4168,196.873 28.5,197.5C 27.7025,197.043 27.3691,196.376 27.5,195.5C 27.2627,194.209 27.596,193.209 28.5,192.5 Z"/></g>
<g><path style="opacity:0.129" fill="#dfd7ca" d="M 53.5,191.5 C 54.3382,191.842 54.6716,192.508 54.5,193.5C 54.8333,194.833 55.1667,196.167 55.5,197.5C 55.5,198.167 55.5,198.833 55.5,199.5C 53.9605,197.162 53.2938,194.495 53.5,191.5 Z"/></g>
<g><path style="opacity:0.902" fill="#afa390" d="M 81.5,191.5 C 82.29,192.609 82.79,193.942 83,195.5C 83.69,196.738 84.19,196.738 84.5,195.5C 84.8333,195.5 85.1667,195.5 85.5,195.5C 85.9118,197.973 84.9118,199.306 82.5,199.5C 81.5269,197.052 81.1936,194.385 81.5,191.5 Z"/></g>
<g><path style="opacity:0.992" fill="#a38f75" d="M 92.5,191.5 C 93.4731,193.948 93.8064,196.615 93.5,199.5C 91.0882,199.306 90.0882,197.973 90.5,195.5C 92.1765,194.817 92.8432,193.483 92.5,191.5 Z"/></g>
<g><path style="opacity:0.749" fill="#cfc4b2" d="M 218.5,192.5 C 218.263,193.791 218.596,194.791 219.5,195.5C 220.42,196.067 220.754,195.401 220.5,193.5C 221.5,193.5 222.5,193.5 223.5,193.5C 223.13,196.54 221.963,199.207 220,201.5C 217.53,198.686 217.03,195.686 218.5,192.5 Z"/></g>
<g><path style="opacity:0.992" fill="#c0ab8e" d="M 228.5,177.5 C 228.833,177.5 229.167,177.5 229.5,177.5C 229.666,183.842 229.5,190.175 229,196.5C 228.764,198.119 227.931,199.119 226.5,199.5C 225.715,197.626 225.048,195.626 224.5,193.5C 226.017,193.511 227.184,194.177 228,195.5C 228.483,194.552 228.649,193.552 228.5,192.5C 228.5,189.833 228.5,187.167 228.5,184.5C 228.5,182.167 228.5,179.833 228.5,177.5 Z"/></g>
<g><path style="opacity:0.173" fill="#eeeae4" d="M 248.5,193.5 C 249.167,193.5 249.833,193.5 250.5,193.5C 250.401,196.605 249.401,199.272 247.5,201.5C 246.478,201.145 245.811,200.478 245.5,199.5C 246.5,199.5 247.5,199.5 248.5,199.5C 248.5,198.5 248.5,197.5 248.5,196.5C 248.5,195.5 248.5,194.5 248.5,193.5 Z"/></g>
<g><path style="opacity:0.329" fill="#c2b9af" d="M 272.5,191.5 C 272.312,193.103 272.812,194.437 274,195.5C 275.347,193.534 276.847,193.201 278.5,194.5C 276.386,195.784 275.386,197.784 275.5,200.5C 272.679,200.684 271.012,199.351 270.5,196.5C 271.028,194.664 271.694,192.997 272.5,191.5 Z"/></g>
<g><path style="opacity:0.021" fill="#ecedea" d="M 143.5,194.5 C 142.5,194.5 141.5,194.5 140.5,194.5C 140.756,196.792 140.423,198.959 139.5,201C 136.07,201.638 134.737,200.138 135.5,196.5C 137.33,200.608 138.33,200.275 138.5,195.5C 138.791,194.351 139.624,193.684 141,193.5C 142.07,193.528 142.903,193.861 143.5,194.5 Z"/></g>
<g><path style="opacity:0.494" fill="#ece4de" d="M 189.5,193.5 C 189.5,195.5 189.5,197.5 189.5,199.5C 190.5,199.5 191.5,199.5 192.5,199.5C 192.5,198.167 192.5,196.833 192.5,195.5C 193.183,193.824 194.517,193.157 196.5,193.5C 196.5,193.833 196.5,194.167 196.5,194.5C 194.968,196.792 193.301,199.125 191.5,201.5C 189.545,200.72 188.545,199.22 188.5,197C 188.514,195.615 188.848,194.449 189.5,193.5 Z"/></g>
<g><path style="opacity:0.976" fill="#b1a797" d="M 298.5,191.5 C 298.833,191.5 299.167,191.5 299.5,191.5C 299.415,192.995 300.081,193.995 301.5,194.5C 302.995,193.295 304.328,193.295 305.5,194.5C 304.099,196.583 302.432,198.583 300.5,200.5C 297.572,197.91 296.905,194.91 298.5,191.5 Z"/></g>
<g><path style="opacity:0.235" fill="#c8c4bc" d="M 26.5,195.5 C 26.8333,195.5 27.1667,195.5 27.5,195.5C 27.3691,196.376 27.7025,197.043 28.5,197.5C 29.4168,196.873 30.4168,196.539 31.5,196.5C 31.8333,196.5 32.1667,196.5 32.5,196.5C 32.8678,199.056 32.0345,201.056 30,202.5C 27.2724,201.046 26.1058,198.712 26.5,195.5 Z"/></g>
<g><path style="opacity:0.976" fill="#b0a89e" d="M 67.5,194.5 C 67.5,196.167 67.5,197.833 67.5,199.5C 67.1575,201.225 66.1575,201.725 64.5,201C 63.1341,199.4 62.1341,197.567 61.5,195.5C 60.6816,197.108 60.0149,198.775 59.5,200.5C 58.8333,200.833 58.1667,201.167 57.5,201.5C 56.2867,201.253 55.62,200.586 55.5,199.5C 55.5,198.833 55.5,198.167 55.5,197.5C 56.791,197.737 57.791,197.404 58.5,196.5C 60.9162,193.751 63.0829,194.085 65,197.5C 65.2355,195.881 66.0689,194.881 67.5,194.5 Z"/></g>
<g><path style="opacity:0.063" fill="#f6f2f1" d="M 143.5,194.5 C 144.167,194.5 144.5,194.833 144.5,195.5C 144.5,196.833 144.5,198.167 144.5,199.5C 145.5,199.5 146.5,199.5 147.5,199.5C 147.5,198.167 147.5,196.833 147.5,195.5C 147.833,195.5 148.167,195.5 148.5,195.5C 148.949,197.977 148.283,199.977 146.5,201.5C 143.971,199.937 142.971,197.604 143.5,194.5 Z"/></g>
<g><path style="opacity:0.329" fill="#d0d2c9" d="M 311.5,191.5 C 311.5,192.5 311.5,193.5 311.5,194.5C 312.359,200.168 310.526,201.501 306,198.5C 305.517,197.552 305.351,196.552 305.5,195.5C 306.695,195.678 307.862,196.011 309,196.5C 310.03,196.164 310.53,195.497 310.5,194.5C 310.263,193.209 310.596,192.209 311.5,191.5 Z"/></g>
<g><path style="opacity:0.325" fill="#c8c5bf" d="M 338.5,193.5 C 338.5,194.5 338.5,195.5 338.5,196.5C 338.256,200.789 336.589,201.456 333.5,198.5C 332.754,197.264 332.421,195.93 332.5,194.5C 333.85,195.483 334.85,196.816 335.5,198.5C 336.425,197.643 337.092,196.643 337.5,195.5C 337.328,194.508 337.662,193.842 338.5,193.5 Z"/></g>
<g><path style="opacity:0.984" fill="#9d9589" d="M 32.5,194.5 C 33.5,194.5 34.5,194.5 35.5,194.5C 35.5,195.5 35.5,196.5 35.5,197.5C 37.1993,197.473 38.5326,196.806 39.5,195.5C 39.5,197.167 39.5,198.833 39.5,200.5C 38.0413,200.567 36.7079,200.234 35.5,199.5C 34.9101,198.234 34.4101,196.901 34,195.5C 33.6174,196.056 33.1174,196.389 32.5,196.5C 32.1667,196.5 31.8333,196.5 31.5,196.5C 31.3284,195.508 31.6618,194.842 32.5,194.5 Z"/></g>
<g><path style="opacity:0.427" fill="#ede9e8" d="M 117.5,199.5 C 116.837,197.958 116.17,196.291 115.5,194.5C 113.95,196.333 112.95,198.499 112.5,201C 111.002,201.585 110.002,201.085 109.5,199.5C 110.5,199.5 111.5,199.5 112.5,199.5C 112.5,198.167 112.5,196.833 112.5,195.5C 113.635,193.787 115.302,193.12 117.5,193.5C 117.5,195.5 117.5,197.5 117.5,199.5 Z"/></g>
<g><path style="opacity:0.737" fill="#d1cec8" d="M 169.5,193.5 C 171.354,194.241 173.021,195.241 174.5,196.5C 174.5,197.833 174.5,199.167 174.5,200.5C 173.207,201.645 172.041,201.311 171,199.5C 170.685,197.414 170.185,195.414 169.5,193.5 Z"/></g>
<g><path style="opacity:0.02" fill="#ececeb" d="M 39.5,193.5 C 39.8333,193.5 40.1667,193.5 40.5,193.5C 41.8876,196.95 41.221,199.95 38.5,202.5C 36.7869,202.121 35.7869,201.121 35.5,199.5C 36.7079,200.234 38.0413,200.567 39.5,200.5C 39.5,198.833 39.5,197.167 39.5,195.5C 39.5,194.833 39.5,194.167 39.5,193.5 Z"/></g>
</svg>
