<?xml version="1.0" encoding="UTF-8"?>
<!DOCTYPE svg PUBLIC "-//W3C//DTD SVG 1.1//EN" "http://www.w3.org/Graphics/SVG/1.1/DTD/svg11.dtd">
<svg xmlns="http://www.w3.org/2000/svg" version="1.1" width="578px" height="577px" style="shape-rendering:geometricPrecision; text-rendering:geometricPrecision; image-rendering:optimizeQuality; fill-rule:evenodd; clip-rule:evenodd" xmlns:xlink="http://www.w3.org/1999/xlink">
<g><path style="opacity:1" fill="#fefefe" d="M -0.5,-0.5 C 192.167,-0.5 384.833,-0.5 577.5,-0.5C 577.5,191.833 577.5,384.167 577.5,576.5C 384.833,576.5 192.167,576.5 -0.5,576.5C -0.5,384.167 -0.5,191.833 -0.5,-0.5 Z"/></g>
<g><path style="opacity:1" fill="#8d8d8d" d="M 273.5,264.5 C 273.38,267.205 274.38,267.872 276.5,266.5C 277.5,267.5 278.5,268.5 279.5,269.5C 278.835,271.101 278.501,272.601 278.5,274C 280.269,275.019 281.936,275.186 283.5,274.5C 284.799,276.758 285.799,279.092 286.5,281.5C 288.167,281.5 289.833,281.5 291.5,281.5C 287.618,282.979 283.784,282.645 280,280.5C 278.251,281.299 276.918,280.632 276,278.5C 273.861,279.769 271.695,279.769 269.5,278.5C 267.805,274.802 268.805,271.968 272.5,270C 269.741,270.156 267.907,271.656 267,274.5C 266.517,273.552 266.351,272.552 266.5,271.5C 268.5,268.833 270.833,266.5 273.5,264.5 Z"/></g>
<g><path style="opacity:1" fill="#717171" d="M 296.5,262.5 C 297.6,263.558 298.934,264.392 300.5,265C 300.904,267.643 302.571,269.81 305.5,271.5C 304.753,271.736 303.92,272.07 303,272.5C 301.758,270.459 299.925,269.293 297.5,269C 298.696,268.346 298.696,267.846 297.5,267.5C 296.264,269.034 295.764,270.7 296,272.5C 296.667,271.833 297.333,271.167 298,270.5C 298.778,272.584 299.945,274.417 301.5,276C 305.152,276.499 308.818,276.665 312.5,276.5C 314.434,283.01 314.934,289.677 314,296.5C 313.626,298.491 312.793,300.158 311.5,301.5C 311.916,296.507 312.249,291.507 312.5,286.5C 311.922,283.72 311.255,281.053 310.5,278.5C 309.791,277.596 308.791,277.263 307.5,277.5C 302.089,278.622 296.756,279.955 291.5,281.5C 289.833,281.5 288.167,281.5 286.5,281.5C 285.799,279.092 284.799,276.758 283.5,274.5C 281.936,275.186 280.269,275.019 278.5,274C 278.501,272.601 278.835,271.101 279.5,269.5C 278.5,268.5 277.5,267.5 276.5,266.5C 274.38,267.872 273.38,267.205 273.5,264.5C 280.943,260.096 288.609,259.429 296.5,262.5 Z"/></g>
<g><path style="opacity:1" fill="#4f4f4f" d="M 296.5,262.5 C 305.649,264.812 311.816,270.479 315,279.5C 317.083,286.592 316.75,293.592 314,300.5C 313.623,301.942 312.79,302.942 311.5,303.5C 311.5,302.833 311.5,302.167 311.5,301.5C 312.793,300.158 313.626,298.491 314,296.5C 314.934,289.677 314.434,283.01 312.5,276.5C 308.818,276.665 305.152,276.499 301.5,276C 299.945,274.417 298.778,272.584 298,270.5C 297.333,271.167 296.667,271.833 296,272.5C 295.764,270.7 296.264,269.034 297.5,267.5C 298.696,267.846 298.696,268.346 297.5,269C 299.925,269.293 301.758,270.459 303,272.5C 303.92,272.07 304.753,271.736 305.5,271.5C 302.571,269.81 300.904,267.643 300.5,265C 298.934,264.392 297.6,263.558 296.5,262.5 Z"/></g>
<g><path style="opacity:1" fill="#f5f5f5" d="M 307.5,277.5 C 308.791,277.263 309.791,277.596 310.5,278.5C 303.789,284.026 296.622,289.026 289,293.5C 288.601,293.272 288.435,292.938 288.5,292.5C 289.141,291.518 289.807,290.518 290.5,289.5C 289.237,287.971 288.237,286.305 287.5,284.5C 294.477,282.765 301.144,280.431 307.5,277.5 Z"/></g>
<g><path style="opacity:1" fill="#a8a8a8" d="M 291.5,281.5 C 296.756,279.955 302.089,278.622 307.5,277.5C 301.144,280.431 294.477,282.765 287.5,284.5C 285.302,284.875 283.302,285.542 281.5,286.5C 281.756,289.598 282.422,292.598 283.5,295.5C 282.85,295.196 282.183,294.863 281.5,294.5C 279.824,291.494 278.157,288.494 276.5,285.5C 275.5,284.167 274.5,284.167 273.5,285.5C 272.253,283.994 272.253,282.494 273.5,281C 270.881,280.849 268.547,280.015 266.5,278.5C 264.364,283.057 263.031,287.724 262.5,292.5C 262.296,289.482 261.963,286.482 261.5,283.5C 262.022,278.912 263.688,274.912 266.5,271.5C 266.351,272.552 266.517,273.552 267,274.5C 267.907,271.656 269.741,270.156 272.5,270C 268.805,271.968 267.805,274.802 269.5,278.5C 271.695,279.769 273.861,279.769 276,278.5C 276.918,280.632 278.251,281.299 280,280.5C 283.784,282.645 287.618,282.979 291.5,281.5 Z"/></g>
<g><path style="opacity:1" fill="#868686" d="M 310.5,278.5 C 311.255,281.053 311.922,283.72 312.5,286.5C 311.629,290.021 310.795,293.688 310,297.5C 309.667,296.167 309.333,294.833 309,293.5C 308.111,294.888 307.611,294.722 307.5,293C 308.943,290.922 308.276,290.089 305.5,290.5C 305.5,289.5 305.5,288.5 305.5,287.5C 301.835,287.502 298.835,288.835 296.5,291.5C 293.975,293.177 291.309,294.677 288.5,296C 286.613,296.78 284.946,296.613 283.5,295.5C 284.497,295.53 285.164,295.03 285.5,294C 285.011,292.862 284.678,291.695 284.5,290.5C 284.369,289.761 284.536,289.094 285,288.5C 285.66,290.324 286.827,291.657 288.5,292.5C 288.435,292.938 288.601,293.272 289,293.5C 296.622,289.026 303.789,284.026 310.5,278.5 Z"/></g>
<g><path style="opacity:1" fill="#505050" d="M 287.5,284.5 C 288.237,286.305 289.237,287.971 290.5,289.5C 289.807,290.518 289.141,291.518 288.5,292.5C 286.827,291.657 285.66,290.324 285,288.5C 284.536,289.094 284.369,289.761 284.5,290.5C 283.857,288.924 282.857,287.59 281.5,286.5C 283.302,285.542 285.302,284.875 287.5,284.5 Z"/></g>
<g><path style="opacity:1" fill="#1a1a1a" d="M 281.5,286.5 C 282.857,287.59 283.857,288.924 284.5,290.5C 284.678,291.695 285.011,292.862 285.5,294C 285.164,295.03 284.497,295.53 283.5,295.5C 282.422,292.598 281.756,289.598 281.5,286.5 Z"/></g>
<g><path style="opacity:1" fill="#e0e0e0" d="M 261.5,283.5 C 261.963,286.482 262.296,289.482 262.5,292.5C 263.09,293.766 263.59,295.099 264,296.5C 264.627,293.55 265.127,290.883 265.5,288.5C 267.121,290.153 268.288,292.153 269,294.5C 270.337,290.37 272.171,289.87 274.5,293C 274.167,293.333 273.833,293.667 273.5,294C 274.448,294.483 275.448,294.649 276.5,294.5C 276.413,297.598 276.913,297.932 278,295.5C 278.354,297.807 279.354,298.141 281,296.5C 282.722,296.611 282.888,297.111 281.5,298C 282.448,298.483 283.448,298.649 284.5,298.5C 284.928,301.246 286.594,302.913 289.5,303.5C 290.167,302.833 290.833,302.167 291.5,301.5C 292.284,304.049 293.451,306.382 295,308.5C 295.333,308.167 295.667,307.833 296,307.5C 297.067,308.191 298.234,308.691 299.5,309C 297.999,310.252 296.332,311.252 294.5,312C 289.116,312.505 283.782,312.505 278.5,312C 281.377,313.127 284.377,313.794 287.5,314C 287.167,314.333 286.833,314.667 286.5,315C 287.416,315.278 288.082,315.778 288.5,316.5C 269.344,313.379 260.344,302.379 261.5,283.5 Z"/></g>
<g><path style="opacity:1" fill="#cacaca" d="M 283.5,295.5 C 284.946,296.613 286.613,296.78 288.5,296C 291.309,294.677 293.975,293.177 296.5,291.5C 298.942,291.354 299.609,292.187 298.5,294C 301.539,295.577 302.872,298.077 302.5,301.5C 303.978,301.238 305.311,301.571 306.5,302.5C 304.684,304.817 302.684,306.984 300.5,309C 302.745,308.805 304.578,307.638 306,305.5C 306.667,306.5 306.667,307.5 306,308.5C 304.955,309.373 304.122,310.373 303.5,311.5C 299.205,314.932 294.205,316.598 288.5,316.5C 288.082,315.778 287.416,315.278 286.5,315C 286.833,314.667 287.167,314.333 287.5,314C 284.377,313.794 281.377,313.127 278.5,312C 283.782,312.505 289.116,312.505 294.5,312C 296.332,311.252 297.999,310.252 299.5,309C 298.234,308.691 297.067,308.191 296,307.5C 295.667,307.833 295.333,308.167 295,308.5C 293.451,306.382 292.284,304.049 291.5,301.5C 290.833,302.167 290.167,302.833 289.5,303.5C 286.594,302.913 284.928,301.246 284.5,298.5C 283.448,298.649 282.448,298.483 281.5,298C 282.888,297.111 282.722,296.611 281,296.5C 279.354,298.141 278.354,297.807 278,295.5C 276.913,297.932 276.413,297.598 276.5,294.5C 275.448,294.649 274.448,294.483 273.5,294C 273.833,293.667 274.167,293.333 274.5,293C 272.171,289.87 270.337,290.37 269,294.5C 268.288,292.153 267.121,290.153 265.5,288.5C 265.127,290.883 264.627,293.55 264,296.5C 263.59,295.099 263.09,293.766 262.5,292.5C 263.031,287.724 264.364,283.057 266.5,278.5C 268.547,280.015 270.881,280.849 273.5,281C 272.253,282.494 272.253,283.994 273.5,285.5C 274.5,284.167 275.5,284.167 276.5,285.5C 278.157,288.494 279.824,291.494 281.5,294.5C 282.183,294.863 282.85,295.196 283.5,295.5 Z"/></g>
<g><path style="opacity:1" fill="#a8a8a8" d="M 312.5,286.5 C 312.249,291.507 311.916,296.507 311.5,301.5C 311.5,302.167 311.5,302.833 311.5,303.5C 309.833,307.167 307.167,309.833 303.5,311.5C 304.122,310.373 304.955,309.373 306,308.5C 306.667,307.5 306.667,306.5 306,305.5C 304.578,307.638 302.745,308.805 300.5,309C 302.684,306.984 304.684,304.817 306.5,302.5C 305.311,301.571 303.978,301.238 302.5,301.5C 302.872,298.077 301.539,295.577 298.5,294C 299.609,292.187 298.942,291.354 296.5,291.5C 298.835,288.835 301.835,287.502 305.5,287.5C 305.5,288.5 305.5,289.5 305.5,290.5C 308.276,290.089 308.943,290.922 307.5,293C 307.611,294.722 308.111,294.888 309,293.5C 309.333,294.833 309.667,296.167 310,297.5C 310.795,293.688 311.629,290.021 312.5,286.5 Z"/></g>
</svg>
